<?xml version="1.0" encoding="utf-8" standalone="no"?>
<!DOCTYPE svg PUBLIC "-//W3C//DTD SVG 1.1//EN"
  "http://www.w3.org/Graphics/SVG/1.1/DTD/svg11.dtd">
<svg xmlns:xlink="http://www.w3.org/1999/xlink" width="864pt" height="360pt" viewBox="0 0 864 360" xmlns="http://www.w3.org/2000/svg" version="1.1">
 <metadata>
  <rdf:RDF xmlns:dc="http://purl.org/dc/elements/1.1/" xmlns:cc="http://creativecommons.org/ns#" xmlns:rdf="http://www.w3.org/1999/02/22-rdf-syntax-ns#">
   <cc:Work>
    <dc:type rdf:resource="http://purl.org/dc/dcmitype/StillImage"/>
    <dc:date>2023-04-24T08:55:28.257676</dc:date>
    <dc:format>image/svg+xml</dc:format>
    <dc:creator>
     <cc:Agent>
      <dc:title>Matplotlib v3.7.1, https://matplotlib.org/</dc:title>
     </cc:Agent>
    </dc:creator>
   </cc:Work>
  </rdf:RDF>
 </metadata>
 <defs>
  <style type="text/css">*{stroke-linejoin: round; stroke-linecap: butt}</style>
 </defs>
 <g id="figure_1">
  <g id="patch_1">
   <path d="M 0 360 
L 864 360 
L 864 0 
L 0 0 
L 0 360 
z
" style="fill: none; opacity: 0"/>
  </g>
  <g id="axes_1">
   <g id="patch_2">
    <path d="M 108 320.4 
L 777.6 320.4 
L 777.6 43.2 
L 108 43.2 
L 108 320.4 
z
" style="fill: none; opacity: 0"/>
   </g>
   <g id="matplotlib.axis_1">
    <g id="xtick_1">
     <g id="line2d_1">
      <path d="M 116.525992 320.4 
L 116.525992 43.2 
" clip-path="url(#p81c8a62687)" style="fill: none; stroke-dasharray: 5.12,1.28,0.8,1.28; stroke-dashoffset: 0; stroke: #b0b0b0; stroke-width: 0.8"/>
     </g>
     <g id="line2d_2">
      <defs>
       <path id="m1539550d81" d="M 0 0 
L 0 3.5 
" style="stroke: #a9a9a9; stroke-width: 0.8"/>
      </defs>
      <g>
       <use xlink:href="#m1539550d81" x="116.525992" y="320.4" style="fill: #a9a9a9; stroke: #a9a9a9; stroke-width: 0.8"/>
      </g>
     </g>
     <g id="text_1">
      <!-- 2021-07 -->
      <g style="fill: #a9a9a9" transform="translate(95.634586 334.998438) scale(0.1 -0.1)">
       <defs>
        <path id="DejaVuSans-32" d="M 1228 531 
L 3431 531 
L 3431 0 
L 469 0 
L 469 531 
Q 828 903 1448 1529 
Q 2069 2156 2228 2338 
Q 2531 2678 2651 2914 
Q 2772 3150 2772 3378 
Q 2772 3750 2511 3984 
Q 2250 4219 1831 4219 
Q 1534 4219 1204 4116 
Q 875 4013 500 3803 
L 500 4441 
Q 881 4594 1212 4672 
Q 1544 4750 1819 4750 
Q 2544 4750 2975 4387 
Q 3406 4025 3406 3419 
Q 3406 3131 3298 2873 
Q 3191 2616 2906 2266 
Q 2828 2175 2409 1742 
Q 1991 1309 1228 531 
z
" transform="scale(0.015625)"/>
        <path id="DejaVuSans-30" d="M 2034 4250 
Q 1547 4250 1301 3770 
Q 1056 3291 1056 2328 
Q 1056 1369 1301 889 
Q 1547 409 2034 409 
Q 2525 409 2770 889 
Q 3016 1369 3016 2328 
Q 3016 3291 2770 3770 
Q 2525 4250 2034 4250 
z
M 2034 4750 
Q 2819 4750 3233 4129 
Q 3647 3509 3647 2328 
Q 3647 1150 3233 529 
Q 2819 -91 2034 -91 
Q 1250 -91 836 529 
Q 422 1150 422 2328 
Q 422 3509 836 4129 
Q 1250 4750 2034 4750 
z
" transform="scale(0.015625)"/>
        <path id="DejaVuSans-31" d="M 794 531 
L 1825 531 
L 1825 4091 
L 703 3866 
L 703 4441 
L 1819 4666 
L 2450 4666 
L 2450 531 
L 3481 531 
L 3481 0 
L 794 0 
L 794 531 
z
" transform="scale(0.015625)"/>
        <path id="DejaVuSans-2d" d="M 313 2009 
L 1997 2009 
L 1997 1497 
L 313 1497 
L 313 2009 
z
" transform="scale(0.015625)"/>
        <path id="DejaVuSans-37" d="M 525 4666 
L 3525 4666 
L 3525 4397 
L 1831 0 
L 1172 0 
L 2766 4134 
L 525 4134 
L 525 4666 
z
" transform="scale(0.015625)"/>
       </defs>
       <use xlink:href="#DejaVuSans-32"/>
       <use xlink:href="#DejaVuSans-30" x="63.623047"/>
       <use xlink:href="#DejaVuSans-32" x="127.246094"/>
       <use xlink:href="#DejaVuSans-31" x="190.869141"/>
       <use xlink:href="#DejaVuSans-2d" x="254.492188"/>
       <use xlink:href="#DejaVuSans-30" x="290.576172"/>
       <use xlink:href="#DejaVuSans-37" x="354.199219"/>
      </g>
     </g>
    </g>
    <g id="xtick_2">
     <g id="line2d_3">
      <path d="M 204.167478 320.4 
L 204.167478 43.2 
" clip-path="url(#p81c8a62687)" style="fill: none; stroke-dasharray: 5.12,1.28,0.8,1.28; stroke-dashoffset: 0; stroke: #b0b0b0; stroke-width: 0.8"/>
     </g>
     <g id="line2d_4">
      <g>
       <use xlink:href="#m1539550d81" x="204.167478" y="320.4" style="fill: #a9a9a9; stroke: #a9a9a9; stroke-width: 0.8"/>
      </g>
     </g>
     <g id="text_2">
      <!-- 2021-10 -->
      <g style="fill: #a9a9a9" transform="translate(183.276071 334.998438) scale(0.1 -0.1)">
       <use xlink:href="#DejaVuSans-32"/>
       <use xlink:href="#DejaVuSans-30" x="63.623047"/>
       <use xlink:href="#DejaVuSans-32" x="127.246094"/>
       <use xlink:href="#DejaVuSans-31" x="190.869141"/>
       <use xlink:href="#DejaVuSans-2d" x="254.492188"/>
       <use xlink:href="#DejaVuSans-31" x="290.576172"/>
       <use xlink:href="#DejaVuSans-30" x="354.199219"/>
      </g>
     </g>
    </g>
    <g id="xtick_3">
     <g id="line2d_5">
      <path d="M 291.808963 320.4 
L 291.808963 43.2 
" clip-path="url(#p81c8a62687)" style="fill: none; stroke-dasharray: 5.12,1.28,0.8,1.28; stroke-dashoffset: 0; stroke: #b0b0b0; stroke-width: 0.8"/>
     </g>
     <g id="line2d_6">
      <g>
       <use xlink:href="#m1539550d81" x="291.808963" y="320.4" style="fill: #a9a9a9; stroke: #a9a9a9; stroke-width: 0.8"/>
      </g>
     </g>
     <g id="text_3">
      <!-- 2022-01 -->
      <g style="fill: #a9a9a9" transform="translate(270.917557 334.998438) scale(0.1 -0.1)">
       <use xlink:href="#DejaVuSans-32"/>
       <use xlink:href="#DejaVuSans-30" x="63.623047"/>
       <use xlink:href="#DejaVuSans-32" x="127.246094"/>
       <use xlink:href="#DejaVuSans-32" x="190.869141"/>
       <use xlink:href="#DejaVuSans-2d" x="254.492188"/>
       <use xlink:href="#DejaVuSans-30" x="290.576172"/>
       <use xlink:href="#DejaVuSans-31" x="354.199219"/>
      </g>
     </g>
    </g>
    <g id="xtick_4">
     <g id="line2d_7">
      <path d="M 377.545198 320.4 
L 377.545198 43.2 
" clip-path="url(#p81c8a62687)" style="fill: none; stroke-dasharray: 5.12,1.28,0.8,1.28; stroke-dashoffset: 0; stroke: #b0b0b0; stroke-width: 0.8"/>
     </g>
     <g id="line2d_8">
      <g>
       <use xlink:href="#m1539550d81" x="377.545198" y="320.4" style="fill: #a9a9a9; stroke: #a9a9a9; stroke-width: 0.8"/>
      </g>
     </g>
     <g id="text_4">
      <!-- 2022-04 -->
      <g style="fill: #a9a9a9" transform="translate(356.653792 334.998438) scale(0.1 -0.1)">
       <defs>
        <path id="DejaVuSans-34" d="M 2419 4116 
L 825 1625 
L 2419 1625 
L 2419 4116 
z
M 2253 4666 
L 3047 4666 
L 3047 1625 
L 3713 1625 
L 3713 1100 
L 3047 1100 
L 3047 0 
L 2419 0 
L 2419 1100 
L 313 1100 
L 313 1709 
L 2253 4666 
z
" transform="scale(0.015625)"/>
       </defs>
       <use xlink:href="#DejaVuSans-32"/>
       <use xlink:href="#DejaVuSans-30" x="63.623047"/>
       <use xlink:href="#DejaVuSans-32" x="127.246094"/>
       <use xlink:href="#DejaVuSans-32" x="190.869141"/>
       <use xlink:href="#DejaVuSans-2d" x="254.492188"/>
       <use xlink:href="#DejaVuSans-30" x="290.576172"/>
       <use xlink:href="#DejaVuSans-34" x="354.199219"/>
      </g>
     </g>
    </g>
    <g id="xtick_5">
     <g id="line2d_9">
      <path d="M 464.234059 320.4 
L 464.234059 43.2 
" clip-path="url(#p81c8a62687)" style="fill: none; stroke-dasharray: 5.12,1.28,0.8,1.28; stroke-dashoffset: 0; stroke: #b0b0b0; stroke-width: 0.8"/>
     </g>
     <g id="line2d_10">
      <g>
       <use xlink:href="#m1539550d81" x="464.234059" y="320.4" style="fill: #a9a9a9; stroke: #a9a9a9; stroke-width: 0.8"/>
      </g>
     </g>
     <g id="text_5">
      <!-- 2022-07 -->
      <g style="fill: #a9a9a9" transform="translate(443.342653 334.998438) scale(0.1 -0.1)">
       <use xlink:href="#DejaVuSans-32"/>
       <use xlink:href="#DejaVuSans-30" x="63.623047"/>
       <use xlink:href="#DejaVuSans-32" x="127.246094"/>
       <use xlink:href="#DejaVuSans-32" x="190.869141"/>
       <use xlink:href="#DejaVuSans-2d" x="254.492188"/>
       <use xlink:href="#DejaVuSans-30" x="290.576172"/>
       <use xlink:href="#DejaVuSans-37" x="354.199219"/>
      </g>
     </g>
    </g>
    <g id="xtick_6">
     <g id="line2d_11">
      <path d="M 551.875544 320.4 
L 551.875544 43.2 
" clip-path="url(#p81c8a62687)" style="fill: none; stroke-dasharray: 5.12,1.28,0.8,1.28; stroke-dashoffset: 0; stroke: #b0b0b0; stroke-width: 0.8"/>
     </g>
     <g id="line2d_12">
      <g>
       <use xlink:href="#m1539550d81" x="551.875544" y="320.4" style="fill: #a9a9a9; stroke: #a9a9a9; stroke-width: 0.8"/>
      </g>
     </g>
     <g id="text_6">
      <!-- 2022-10 -->
      <g style="fill: #a9a9a9" transform="translate(530.984138 334.998438) scale(0.1 -0.1)">
       <use xlink:href="#DejaVuSans-32"/>
       <use xlink:href="#DejaVuSans-30" x="63.623047"/>
       <use xlink:href="#DejaVuSans-32" x="127.246094"/>
       <use xlink:href="#DejaVuSans-32" x="190.869141"/>
       <use xlink:href="#DejaVuSans-2d" x="254.492188"/>
       <use xlink:href="#DejaVuSans-31" x="290.576172"/>
       <use xlink:href="#DejaVuSans-30" x="354.199219"/>
      </g>
     </g>
    </g>
    <g id="xtick_7">
     <g id="line2d_13">
      <path d="M 639.517029 320.4 
L 639.517029 43.2 
" clip-path="url(#p81c8a62687)" style="fill: none; stroke-dasharray: 5.12,1.28,0.8,1.28; stroke-dashoffset: 0; stroke: #b0b0b0; stroke-width: 0.8"/>
     </g>
     <g id="line2d_14">
      <g>
       <use xlink:href="#m1539550d81" x="639.517029" y="320.4" style="fill: #a9a9a9; stroke: #a9a9a9; stroke-width: 0.8"/>
      </g>
     </g>
     <g id="text_7">
      <!-- 2023-01 -->
      <g style="fill: #a9a9a9" transform="translate(618.625623 334.998438) scale(0.1 -0.1)">
       <defs>
        <path id="DejaVuSans-33" d="M 2597 2516 
Q 3050 2419 3304 2112 
Q 3559 1806 3559 1356 
Q 3559 666 3084 287 
Q 2609 -91 1734 -91 
Q 1441 -91 1130 -33 
Q 819 25 488 141 
L 488 750 
Q 750 597 1062 519 
Q 1375 441 1716 441 
Q 2309 441 2620 675 
Q 2931 909 2931 1356 
Q 2931 1769 2642 2001 
Q 2353 2234 1838 2234 
L 1294 2234 
L 1294 2753 
L 1863 2753 
Q 2328 2753 2575 2939 
Q 2822 3125 2822 3475 
Q 2822 3834 2567 4026 
Q 2313 4219 1838 4219 
Q 1578 4219 1281 4162 
Q 984 4106 628 3988 
L 628 4550 
Q 988 4650 1302 4700 
Q 1616 4750 1894 4750 
Q 2613 4750 3031 4423 
Q 3450 4097 3450 3541 
Q 3450 3153 3228 2886 
Q 3006 2619 2597 2516 
z
" transform="scale(0.015625)"/>
       </defs>
       <use xlink:href="#DejaVuSans-32"/>
       <use xlink:href="#DejaVuSans-30" x="63.623047"/>
       <use xlink:href="#DejaVuSans-32" x="127.246094"/>
       <use xlink:href="#DejaVuSans-33" x="190.869141"/>
       <use xlink:href="#DejaVuSans-2d" x="254.492188"/>
       <use xlink:href="#DejaVuSans-30" x="290.576172"/>
       <use xlink:href="#DejaVuSans-31" x="354.199219"/>
      </g>
     </g>
    </g>
    <g id="xtick_8">
     <g id="line2d_15">
      <path d="M 725.253265 320.4 
L 725.253265 43.2 
" clip-path="url(#p81c8a62687)" style="fill: none; stroke-dasharray: 5.12,1.28,0.8,1.28; stroke-dashoffset: 0; stroke: #b0b0b0; stroke-width: 0.8"/>
     </g>
     <g id="line2d_16">
      <g>
       <use xlink:href="#m1539550d81" x="725.253265" y="320.4" style="fill: #a9a9a9; stroke: #a9a9a9; stroke-width: 0.8"/>
      </g>
     </g>
     <g id="text_8">
      <!-- 2023-04 -->
      <g style="fill: #a9a9a9" transform="translate(704.361859 334.998438) scale(0.1 -0.1)">
       <use xlink:href="#DejaVuSans-32"/>
       <use xlink:href="#DejaVuSans-30" x="63.623047"/>
       <use xlink:href="#DejaVuSans-32" x="127.246094"/>
       <use xlink:href="#DejaVuSans-33" x="190.869141"/>
       <use xlink:href="#DejaVuSans-2d" x="254.492188"/>
       <use xlink:href="#DejaVuSans-30" x="290.576172"/>
       <use xlink:href="#DejaVuSans-34" x="354.199219"/>
      </g>
     </g>
    </g>
   </g>
   <g id="matplotlib.axis_2">
    <g id="ytick_1">
     <g id="line2d_17">
      <path d="M 108 307.859504 
L 777.6 307.859504 
" clip-path="url(#p81c8a62687)" style="fill: none; stroke-dasharray: 5.12,1.28,0.8,1.28; stroke-dashoffset: 0; stroke: #b0b0b0; stroke-width: 0.8"/>
     </g>
     <g id="line2d_18">
      <defs>
       <path id="m7af178da16" d="M 0 0 
L -3.5 0 
" style="stroke: #a9a9a9; stroke-width: 0.8"/>
      </defs>
      <g>
       <use xlink:href="#m7af178da16" x="108" y="307.859504" style="fill: #a9a9a9; stroke: #a9a9a9; stroke-width: 0.8"/>
      </g>
     </g>
     <g id="text_9">
      <!-- 0 -->
      <g style="fill: #a9a9a9" transform="translate(94.6375 311.658723) scale(0.1 -0.1)">
       <use xlink:href="#DejaVuSans-30"/>
      </g>
     </g>
    </g>
    <g id="ytick_2">
     <g id="line2d_19">
      <path d="M 108 278.107438 
L 777.6 278.107438 
" clip-path="url(#p81c8a62687)" style="fill: none; stroke-dasharray: 5.12,1.28,0.8,1.28; stroke-dashoffset: 0; stroke: #b0b0b0; stroke-width: 0.8"/>
     </g>
     <g id="line2d_20">
      <g>
       <use xlink:href="#m7af178da16" x="108" y="278.107438" style="fill: #a9a9a9; stroke: #a9a9a9; stroke-width: 0.8"/>
      </g>
     </g>
     <g id="text_10">
      <!-- 500 -->
      <g style="fill: #a9a9a9" transform="translate(81.9125 281.906657) scale(0.1 -0.1)">
       <defs>
        <path id="DejaVuSans-35" d="M 691 4666 
L 3169 4666 
L 3169 4134 
L 1269 4134 
L 1269 2991 
Q 1406 3038 1543 3061 
Q 1681 3084 1819 3084 
Q 2600 3084 3056 2656 
Q 3513 2228 3513 1497 
Q 3513 744 3044 326 
Q 2575 -91 1722 -91 
Q 1428 -91 1123 -41 
Q 819 9 494 109 
L 494 744 
Q 775 591 1075 516 
Q 1375 441 1709 441 
Q 2250 441 2565 725 
Q 2881 1009 2881 1497 
Q 2881 1984 2565 2268 
Q 2250 2553 1709 2553 
Q 1456 2553 1204 2497 
Q 953 2441 691 2322 
L 691 4666 
z
" transform="scale(0.015625)"/>
       </defs>
       <use xlink:href="#DejaVuSans-35"/>
       <use xlink:href="#DejaVuSans-30" x="63.623047"/>
       <use xlink:href="#DejaVuSans-30" x="127.246094"/>
      </g>
     </g>
    </g>
    <g id="ytick_3">
     <g id="line2d_21">
      <path d="M 108 248.355372 
L 777.6 248.355372 
" clip-path="url(#p81c8a62687)" style="fill: none; stroke-dasharray: 5.12,1.28,0.8,1.28; stroke-dashoffset: 0; stroke: #b0b0b0; stroke-width: 0.8"/>
     </g>
     <g id="line2d_22">
      <g>
       <use xlink:href="#m7af178da16" x="108" y="248.355372" style="fill: #a9a9a9; stroke: #a9a9a9; stroke-width: 0.8"/>
      </g>
     </g>
     <g id="text_11">
      <!-- 1000 -->
      <g style="fill: #a9a9a9" transform="translate(75.55 252.154591) scale(0.1 -0.1)">
       <use xlink:href="#DejaVuSans-31"/>
       <use xlink:href="#DejaVuSans-30" x="63.623047"/>
       <use xlink:href="#DejaVuSans-30" x="127.246094"/>
       <use xlink:href="#DejaVuSans-30" x="190.869141"/>
      </g>
     </g>
    </g>
    <g id="ytick_4">
     <g id="line2d_23">
      <path d="M 108 218.603306 
L 777.6 218.603306 
" clip-path="url(#p81c8a62687)" style="fill: none; stroke-dasharray: 5.12,1.28,0.8,1.28; stroke-dashoffset: 0; stroke: #b0b0b0; stroke-width: 0.8"/>
     </g>
     <g id="line2d_24">
      <g>
       <use xlink:href="#m7af178da16" x="108" y="218.603306" style="fill: #a9a9a9; stroke: #a9a9a9; stroke-width: 0.8"/>
      </g>
     </g>
     <g id="text_12">
      <!-- 1500 -->
      <g style="fill: #a9a9a9" transform="translate(75.55 222.402525) scale(0.1 -0.1)">
       <use xlink:href="#DejaVuSans-31"/>
       <use xlink:href="#DejaVuSans-35" x="63.623047"/>
       <use xlink:href="#DejaVuSans-30" x="127.246094"/>
       <use xlink:href="#DejaVuSans-30" x="190.869141"/>
      </g>
     </g>
    </g>
    <g id="ytick_5">
     <g id="line2d_25">
      <path d="M 108 188.85124 
L 777.6 188.85124 
" clip-path="url(#p81c8a62687)" style="fill: none; stroke-dasharray: 5.12,1.28,0.8,1.28; stroke-dashoffset: 0; stroke: #b0b0b0; stroke-width: 0.8"/>
     </g>
     <g id="line2d_26">
      <g>
       <use xlink:href="#m7af178da16" x="108" y="188.85124" style="fill: #a9a9a9; stroke: #a9a9a9; stroke-width: 0.8"/>
      </g>
     </g>
     <g id="text_13">
      <!-- 2000 -->
      <g style="fill: #a9a9a9" transform="translate(75.55 192.650458) scale(0.1 -0.1)">
       <use xlink:href="#DejaVuSans-32"/>
       <use xlink:href="#DejaVuSans-30" x="63.623047"/>
       <use xlink:href="#DejaVuSans-30" x="127.246094"/>
       <use xlink:href="#DejaVuSans-30" x="190.869141"/>
      </g>
     </g>
    </g>
    <g id="ytick_6">
     <g id="line2d_27">
      <path d="M 108 159.099174 
L 777.6 159.099174 
" clip-path="url(#p81c8a62687)" style="fill: none; stroke-dasharray: 5.12,1.28,0.8,1.28; stroke-dashoffset: 0; stroke: #b0b0b0; stroke-width: 0.8"/>
     </g>
     <g id="line2d_28">
      <g>
       <use xlink:href="#m7af178da16" x="108" y="159.099174" style="fill: #a9a9a9; stroke: #a9a9a9; stroke-width: 0.8"/>
      </g>
     </g>
     <g id="text_14">
      <!-- 2500 -->
      <g style="fill: #a9a9a9" transform="translate(75.55 162.898392) scale(0.1 -0.1)">
       <use xlink:href="#DejaVuSans-32"/>
       <use xlink:href="#DejaVuSans-35" x="63.623047"/>
       <use xlink:href="#DejaVuSans-30" x="127.246094"/>
       <use xlink:href="#DejaVuSans-30" x="190.869141"/>
      </g>
     </g>
    </g>
    <g id="ytick_7">
     <g id="line2d_29">
      <path d="M 108 129.347107 
L 777.6 129.347107 
" clip-path="url(#p81c8a62687)" style="fill: none; stroke-dasharray: 5.12,1.28,0.8,1.28; stroke-dashoffset: 0; stroke: #b0b0b0; stroke-width: 0.8"/>
     </g>
     <g id="line2d_30">
      <g>
       <use xlink:href="#m7af178da16" x="108" y="129.347107" style="fill: #a9a9a9; stroke: #a9a9a9; stroke-width: 0.8"/>
      </g>
     </g>
     <g id="text_15">
      <!-- 3000 -->
      <g style="fill: #a9a9a9" transform="translate(75.55 133.146326) scale(0.1 -0.1)">
       <use xlink:href="#DejaVuSans-33"/>
       <use xlink:href="#DejaVuSans-30" x="63.623047"/>
       <use xlink:href="#DejaVuSans-30" x="127.246094"/>
       <use xlink:href="#DejaVuSans-30" x="190.869141"/>
      </g>
     </g>
    </g>
    <g id="ytick_8">
     <g id="line2d_31">
      <path d="M 108 99.595041 
L 777.6 99.595041 
" clip-path="url(#p81c8a62687)" style="fill: none; stroke-dasharray: 5.12,1.28,0.8,1.28; stroke-dashoffset: 0; stroke: #b0b0b0; stroke-width: 0.8"/>
     </g>
     <g id="line2d_32">
      <g>
       <use xlink:href="#m7af178da16" x="108" y="99.595041" style="fill: #a9a9a9; stroke: #a9a9a9; stroke-width: 0.8"/>
      </g>
     </g>
     <g id="text_16">
      <!-- 3500 -->
      <g style="fill: #a9a9a9" transform="translate(75.55 103.39426) scale(0.1 -0.1)">
       <use xlink:href="#DejaVuSans-33"/>
       <use xlink:href="#DejaVuSans-35" x="63.623047"/>
       <use xlink:href="#DejaVuSans-30" x="127.246094"/>
       <use xlink:href="#DejaVuSans-30" x="190.869141"/>
      </g>
     </g>
    </g>
    <g id="ytick_9">
     <g id="line2d_33">
      <path d="M 108 69.842975 
L 777.6 69.842975 
" clip-path="url(#p81c8a62687)" style="fill: none; stroke-dasharray: 5.12,1.28,0.8,1.28; stroke-dashoffset: 0; stroke: #b0b0b0; stroke-width: 0.8"/>
     </g>
     <g id="line2d_34">
      <g>
       <use xlink:href="#m7af178da16" x="108" y="69.842975" style="fill: #a9a9a9; stroke: #a9a9a9; stroke-width: 0.8"/>
      </g>
     </g>
     <g id="text_17">
      <!-- 4000 -->
      <g style="fill: #a9a9a9" transform="translate(75.55 73.642194) scale(0.1 -0.1)">
       <use xlink:href="#DejaVuSans-34"/>
       <use xlink:href="#DejaVuSans-30" x="63.623047"/>
       <use xlink:href="#DejaVuSans-30" x="127.246094"/>
       <use xlink:href="#DejaVuSans-30" x="190.869141"/>
      </g>
     </g>
    </g>
   </g>
   <g id="line2d_35">
    <path d="M 138.436364 307.621488 
L 142.246863 307.323967 
L 143.199488 307.204959 
L 144.152113 307.204959 
L 145.104738 306.847934 
L 147.009987 306.728926 
L 153.678361 305.479339 
L 155.583611 305.360331 
L 156.536236 305.181818 
L 159.39411 305.003306 
L 160.346735 304.527273 
L 161.29936 304.289256 
L 162.251985 303.218182 
L 163.204609 302.62314 
L 164.157234 300.659504 
L 165.109859 300.540496 
L 166.062484 299.88595 
L 167.015109 299.528926 
L 167.967734 299.052893 
L 170.825608 296.85124 
L 172.730858 296.018182 
L 173.683483 295.661157 
L 174.636108 295.006612 
L 176.541357 294.233058 
L 177.493982 293.757025 
L 178.446607 293.459504 
L 179.399232 292.031405 
L 180.351857 291.317355 
L 182.257106 290.365289 
L 187.972855 289.591736 
L 188.92548 289.413223 
L 190.83073 289.294215 
L 191.783355 289.115702 
L 192.73598 288.639669 
L 194.641229 288.580165 
L 195.593854 288.580165 
L 199.404353 288.163636 
L 200.356978 287.866116 
L 205.120102 286.973554 
L 207.025352 286.795041 
L 207.977977 286.557025 
L 210.835851 286.259504 
L 211.788476 285.783471 
L 212.741101 285.664463 
L 213.693726 285.307438 
L 215.598976 285.009917 
L 216.551601 284.950413 
L 217.504225 284.652893 
L 221.314725 284.117355 
L 222.26735 283.819835 
L 224.172599 283.522314 
L 225.125224 283.522314 
L 229.888348 282.927273 
L 231.793598 282.391736 
L 232.746223 282.153719 
L 234.651472 281.975207 
L 235.604097 281.915702 
L 238.461972 281.380165 
L 239.414597 281.082645 
L 240.367222 279.892562 
L 241.319846 279.535537 
L 242.272471 279.059504 
L 243.225096 278.940496 
L 244.177721 278.702479 
L 245.130346 278.583471 
L 247.035595 277.809917 
L 247.98822 277.750413 
L 252.751344 276.560331 
L 253.703969 276.560331 
L 255.609219 276.322314 
L 257.514469 275.786777 
L 260.372343 275.132231 
L 261.324968 275.072727 
L 263.230218 274.299174 
L 264.182843 274.180165 
L 265.135467 273.763636 
L 267.040717 273.585124 
L 267.993342 273.52562 
L 270.851216 273.049587 
L 272.756466 272.752066 
L 277.51959 271.859504 
L 279.42484 271.204959 
L 280.377465 270.669421 
L 281.33009 270.431405 
L 282.282714 270.312397 
L 284.187964 269.717355 
L 286.093214 268.705785 
L 287.045839 268.110744 
L 287.998464 267.991736 
L 288.951088 267.694215 
L 289.903713 267.575207 
L 290.856338 267.33719 
L 291.808963 267.218182 
L 292.761588 266.801653 
L 294.666837 266.504132 
L 296.572087 265.671074 
L 297.524712 265.433058 
L 298.477337 265.31405 
L 299.429962 265.016529 
L 303.240461 264.302479 
L 305.145711 263.528926 
L 306.098335 263.350413 
L 307.05096 262.993388 
L 308.003585 262.87438 
L 308.95621 262.457851 
L 309.908835 262.219835 
L 311.814085 262.100826 
L 313.719334 261.505785 
L 314.671959 261.386777 
L 315.624584 261.386777 
L 316.577209 260.970248 
L 319.435083 260.375207 
L 321.340333 260.315702 
L 322.292958 260.196694 
L 323.245583 260.196694 
L 325.150832 259.899174 
L 328.008707 258.590083 
L 328.961332 258.173554 
L 329.913956 257.935537 
L 330.866581 257.340496 
L 331.819206 257.042975 
L 333.724456 256.209917 
L 334.677081 256.031405 
L 336.58233 255.37686 
L 338.48758 254.365289 
L 339.440205 253.413223 
L 340.39283 251.985124 
L 341.345455 250.854545 
L 342.298079 250.616529 
L 343.250704 250.616529 
L 345.155954 249.307438 
L 346.108579 249.069421 
L 347.061204 248.593388 
L 348.013828 248.414876 
L 348.966453 247.581818 
L 349.919078 247.343802 
L 352.776953 246.094215 
L 353.729577 245.02314 
L 354.682202 243.654545 
L 355.634827 243.119008 
L 356.587452 241.690909 
L 357.540077 240.798347 
L 358.492702 240.381818 
L 359.445327 240.143802 
L 361.350576 239.072727 
L 362.303201 238.656198 
L 366.1137 236.038017 
L 367.066325 234.78843 
L 368.01895 232.765289 
L 368.971575 231.456198 
L 369.9242 230.801653 
L 370.876825 230.444628 
L 374.687324 227.409917 
L 376.592574 225.981818 
L 377.545198 225.208264 
L 378.497823 223.958678 
L 379.450448 223.12562 
L 382.308323 221.280992 
L 384.213572 220.090909 
L 385.166197 219.317355 
L 386.118822 219.079339 
L 388.976697 217.710744 
L 390.881946 216.699174 
L 391.834571 216.342149 
L 393.739821 214.735537 
L 394.692446 213.664463 
L 396.597695 212.47438 
L 397.55032 212.236364 
L 398.502945 211.760331 
L 399.45557 211.105785 
L 401.360819 210.153719 
L 402.313444 210.034711 
L 403.266069 209.439669 
L 405.171319 208.547107 
L 406.123944 207.654545 
L 407.076569 207.059504 
L 408.029193 206.761983 
L 408.981818 206.166942 
L 411.839693 204.917355 
L 412.792318 204.322314 
L 413.744942 203.54876 
L 415.650192 202.894215 
L 416.602817 202.53719 
L 417.555442 202.358678 
L 418.508067 201.763636 
L 419.460691 201.585124 
L 421.365941 200.930579 
L 423.271191 200.276033 
L 425.17644 199.561983 
L 426.129065 199.323967 
L 427.08169 198.966942 
L 428.98694 198.669421 
L 430.89219 197.181818 
L 431.844814 196.824793 
L 436.607939 194.563636 
L 437.560563 194.32562 
L 438.513188 193.790083 
L 439.465813 193.552066 
L 442.323688 191.88595 
L 445.181562 191.290909 
L 446.134187 190.993388 
L 447.086812 190.814876 
L 449.944686 189.267769 
L 450.897311 189.14876 
L 451.849936 188.791736 
L 452.802561 188.672727 
L 453.755186 188.434711 
L 456.61306 186.530579 
L 457.565685 186.352066 
L 458.51831 186.054545 
L 459.470935 185.935537 
L 460.42356 185.638017 
L 461.376184 184.983471 
L 462.328809 184.68595 
L 463.281434 184.269421 
L 467.091933 183.257851 
L 468.044558 183.198347 
L 468.997183 182.900826 
L 470.902433 182.127273 
L 471.855058 181.829752 
L 472.807682 181.65124 
L 475.665557 180.520661 
L 477.570807 179.985124 
L 478.523431 179.92562 
L 480.428681 179.509091 
L 481.381306 179.092562 
L 482.333931 178.91405 
L 484.239181 178.140496 
L 488.04968 176.355372 
L 489.002305 175.760331 
L 489.95493 175.522314 
L 492.812804 174.153719 
L 494.718054 173.73719 
L 496.623303 172.844628 
L 497.575928 172.547107 
L 499.481178 172.249587 
L 500.433803 171.595041 
L 501.386428 171.178512 
L 502.339052 171 
L 504.244302 170.28595 
L 505.196927 170.107438 
L 506.149552 169.631405 
L 509.960051 169.095868 
L 511.865301 168.26281 
L 512.817926 167.54876 
L 513.770551 166.001653 
L 514.723175 165.763636 
L 516.628425 165.466116 
L 520.438924 163.680992 
L 521.391549 163.502479 
L 527.107298 160.943802 
L 528.059923 160.34876 
L 529.012548 159.991736 
L 531.870423 159.456198 
L 533.775672 158.563636 
L 534.728297 158.206612 
L 535.680922 158.087603 
L 538.538796 157.016529 
L 540.444046 155.945455 
L 541.396671 155.350413 
L 542.349296 154.933884 
L 543.301921 154.814876 
L 544.254545 154.517355 
L 545.20717 154.457851 
L 549.01767 153.267769 
L 549.970294 153.208264 
L 550.922919 152.553719 
L 551.875544 152.315702 
L 553.780794 151.601653 
L 555.686044 151.066116 
L 556.638668 150.530579 
L 557.591293 150.233058 
L 558.543918 149.638017 
L 559.496543 149.280992 
L 560.449168 148.745455 
L 562.354417 148.090909 
L 563.307042 147.793388 
L 566.164917 146.603306 
L 567.117542 145.94876 
L 568.070166 144.93719 
L 569.022791 144.342149 
L 569.975416 144.163636 
L 571.880666 142.795041 
L 572.833291 142.616529 
L 573.785915 141.307438 
L 574.73854 140.950413 
L 575.691165 140.295868 
L 576.64379 140.17686 
L 577.596415 139.581818 
L 578.54904 139.165289 
L 579.501665 138.986777 
L 580.454289 138.629752 
L 581.406914 137.915702 
L 582.359539 137.618182 
L 585.217414 135.833058 
L 589.027913 134.107438 
L 589.980538 133.98843 
L 590.933163 133.631405 
L 592.838412 132.619835 
L 593.791037 131.191736 
L 594.743662 130.299174 
L 595.696287 129.82314 
L 596.648912 129.644628 
L 598.554161 128.573554 
L 599.506786 128.395041 
L 601.412036 127.561983 
L 604.26991 126.431405 
L 606.17516 125.181818 
L 608.08041 123.277686 
L 609.033035 122.563636 
L 610.938284 121.492562 
L 611.890909 120.6 
L 614.748784 118.457851 
L 615.701408 117.981818 
L 616.654033 117.029752 
L 617.606658 116.375207 
L 619.511908 115.720661 
L 620.464533 114.887603 
L 622.369782 113.995041 
L 623.322407 113.757025 
L 624.275032 113.102479 
L 625.227657 112.864463 
L 628.085531 111.495868 
L 629.038156 110.841322 
L 629.990781 110.365289 
L 631.896031 109.829752 
L 632.848656 109.294215 
L 635.70653 108.461157 
L 637.61178 107.92562 
L 639.517029 107.033058 
L 640.469654 106.259504 
L 642.374904 105.545455 
L 645.232778 104.533884 
L 646.185403 103.879339 
L 649.043278 102.629752 
L 649.995903 101.975207 
L 650.948528 101.499174 
L 652.853777 98.047934 
L 654.759027 95.905785 
L 655.711652 95.25124 
L 659.522151 93.704132 
L 660.474776 93.585124 
L 661.427401 93.109091 
L 662.380026 92.871074 
L 663.33265 92.51405 
L 664.285275 92.276033 
L 667.14315 91.204959 
L 669.048399 89.895868 
L 670.953649 89.181818 
L 676.669398 86.206612 
L 677.622023 85.31405 
L 679.527273 84.361983 
L 680.479898 83.88595 
L 681.432522 83.58843 
L 682.385147 82.933884 
L 683.337772 82.57686 
L 686.195647 81.029752 
L 687.148271 80.494215 
L 688.100896 80.256198 
L 689.053521 79.601653 
L 690.006146 79.244628 
L 690.958771 79.066116 
L 692.86402 78.352066 
L 694.76927 77.816529 
L 695.721895 77.340496 
L 696.67452 76.68595 
L 697.627145 76.507438 
L 700.485019 75.555372 
L 701.437644 74.841322 
L 704.295519 73.770248 
L 705.248143 73.532231 
L 707.153393 72.342149 
L 708.106018 71.985124 
L 709.058643 71.509091 
L 710.963892 70.2 
L 712.869142 69.604959 
L 713.821767 68.831405 
L 714.774392 68.652893 
L 715.727017 67.879339 
L 717.632266 66.867769 
L 719.537516 66.094215 
L 720.490141 65.201653 
L 721.442766 64.72562 
L 723.348015 64.190083 
L 724.30064 63.654545 
L 725.253265 63.535537 
L 728.11114 62.166942 
L 730.969014 61.333884 
L 731.921639 61.095868 
L 732.874264 61.036364 
L 733.826889 60.857851 
L 734.779513 60.500826 
L 735.732138 60.322314 
L 737.637388 59.608264 
L 738.590013 59.54876 
L 741.447887 58.656198 
L 743.353137 57.585124 
L 745.258387 56.216529 
L 746.211012 55.8 
L 747.163636 55.8 
L 747.163636 55.8 
" clip-path="url(#p81c8a62687)" style="fill: none; stroke: #1f77b4; stroke-width: 1.5; stroke-linecap: square"/>
   </g>
   <g id="line2d_36">
    <path d="M 139.388988 307.8 
L 141.294238 307.8 
L 143.199488 307.561983 
L 148.915237 307.502479 
L 151.773111 307.383471 
L 154.630986 307.323967 
L 156.536236 307.264463 
L 159.39411 307.264463 
L 160.346735 307.026446 
L 163.204609 306.966942 
L 167.967734 306.431405 
L 175.588732 306.014876 
L 176.541357 306.014876 
L 177.493982 305.836364 
L 180.351857 305.77686 
L 182.257106 305.538843 
L 186.067606 305.538843 
L 187.02023 305.419835 
L 191.783355 305.360331 
L 194.641229 305.241322 
L 203.214853 305.181818 
L 205.120102 305.122314 
L 208.930602 305.06281 
L 211.788476 304.943802 
L 215.598976 304.943802 
L 216.551601 304.824793 
L 219.409475 304.765289 
L 223.219974 304.586777 
L 229.888348 304.527273 
L 231.793598 304.467769 
L 235.604097 304.408264 
L 238.461972 304.05124 
L 243.225096 303.991736 
L 247.98822 303.753719 
L 252.751344 303.694215 
L 255.609219 303.575207 
L 257.514469 303.515702 
L 259.419718 303.33719 
L 263.230218 303.158678 
L 266.088092 303.099174 
L 267.993342 303.039669 
L 269.898592 303.039669 
L 270.851216 302.920661 
L 273.709091 302.920661 
L 275.614341 302.742149 
L 278.472215 302.62314 
L 283.235339 302.563636 
L 286.093214 302.266116 
L 287.998464 302.147107 
L 288.951088 301.968595 
L 292.761588 301.909091 
L 303.240461 301.31405 
L 305.145711 301.254545 
L 308.003585 301.135537 
L 308.95621 301.135537 
L 310.86146 300.957025 
L 312.766709 300.897521 
L 313.719334 300.897521 
L 314.671959 300.778512 
L 316.577209 300.719008 
L 321.340333 300.480992 
L 323.245583 300.421488 
L 326.103457 300.302479 
L 328.961332 300.242975 
L 330.866581 300.183471 
L 335.629706 300.183471 
L 339.440205 299.766942 
L 340.39283 299.766942 
L 342.298079 299.58843 
L 344.203329 299.528926 
L 348.966453 299.231405 
L 349.919078 298.993388 
L 351.824328 298.87438 
L 352.776953 298.636364 
L 355.634827 298.398347 
L 357.540077 297.981818 
L 359.445327 297.922314 
L 361.350576 297.922314 
L 362.303201 297.803306 
L 363.255826 297.803306 
L 366.1137 297.386777 
L 367.066325 297.14876 
L 384.213572 296.13719 
L 385.166197 296.13719 
L 388.976697 295.661157 
L 389.929321 295.661157 
L 391.834571 295.363636 
L 393.739821 295.185124 
L 395.64507 295.12562 
L 397.55032 295.12562 
L 398.502945 294.887603 
L 401.360819 294.768595 
L 403.266069 294.768595 
L 405.171319 294.590083 
L 406.123944 294.590083 
L 408.981818 294.173554 
L 409.934443 293.935537 
L 411.839693 293.876033 
L 413.744942 293.816529 
L 414.697567 293.697521 
L 419.460691 293.638017 
L 432.797439 292.864463 
L 434.702689 292.864463 
L 436.607939 292.68595 
L 438.513188 292.68595 
L 441.371063 292.38843 
L 445.181562 292.209917 
L 447.086812 292.150413 
L 448.992061 292.090909 
L 451.849936 292.031405 
L 458.51831 291.67438 
L 463.281434 291.614876 
L 465.186684 291.555372 
L 466.139309 291.555372 
L 467.091933 291.37686 
L 468.997183 291.317355 
L 474.712932 291.257851 
L 476.618182 291.198347 
L 481.381306 291.138843 
L 482.333931 290.960331 
L 488.04968 290.900826 
L 489.95493 290.841322 
L 491.860179 290.781818 
L 493.765429 290.722314 
L 495.670679 290.66281 
L 502.339052 290.305785 
L 508.054802 290.246281 
L 510.912676 290.008264 
L 512.817926 289.829752 
L 514.723175 289.770248 
L 516.628425 289.770248 
L 517.58105 289.65124 
L 520.438924 289.591736 
L 521.391549 289.353719 
L 525.202049 289.175207 
L 533.775672 289.115702 
L 538.538796 288.758678 
L 541.396671 288.461157 
L 546.159795 288.401653 
L 549.01767 288.104132 
L 554.733419 287.806612 
L 556.638668 287.747107 
L 560.449168 287.568595 
L 564.259667 287.509091 
L 567.117542 287.390083 
L 570.928041 287.330579 
L 573.785915 287.033058 
L 575.691165 286.973554 
L 579.501665 286.91405 
L 582.359539 286.676033 
L 583.312164 286.557025 
L 584.264789 286.557025 
L 586.170038 286.378512 
L 590.933163 286.319008 
L 592.838412 286.021488 
L 601.412036 285.961983 
L 603.317286 285.783471 
L 604.26991 285.664463 
L 606.17516 285.604959 
L 608.08041 285.545455 
L 609.033035 285.307438 
L 610.938284 285.247934 
L 611.890909 285.069421 
L 613.796159 285.069421 
L 616.654033 284.771901 
L 634.753905 283.700826 
L 636.659155 283.641322 
L 638.564405 283.581818 
L 649.995903 283.522314 
L 652.853777 283.403306 
L 653.806402 283.403306 
L 654.759027 283.165289 
L 656.664277 283.105785 
L 661.427401 283.046281 
L 664.285275 282.927273 
L 669.048399 282.867769 
L 671.906274 282.74876 
L 673.811524 282.74876 
L 675.716773 282.510744 
L 677.622023 282.45124 
L 684.290397 282.094215 
L 686.195647 282.094215 
L 688.100896 281.915702 
L 694.76927 281.856198 
L 696.67452 281.677686 
L 699.532394 281.558678 
L 704.295519 281.499174 
L 706.200768 281.439669 
L 710.011268 281.380165 
L 711.916517 281.320661 
L 713.821767 281.261157 
L 715.727017 281.201653 
L 721.442766 281.142149 
L 726.20589 280.904132 
L 731.921639 280.844628 
L 736.684763 280.606612 
L 741.447887 280.606612 
L 742.400512 280.428099 
L 743.353137 280.428099 
L 745.258387 280.249587 
L 747.163636 280.249587 
L 747.163636 280.249587 
" clip-path="url(#p81c8a62687)" style="fill: none; stroke: #ff7f0e; stroke-width: 1.5; stroke-linecap: square"/>
   </g>
   <g id="patch_3">
    <path d="M 108 320.4 
L 108 43.2 
" style="fill: none; stroke: #a9a9a9; stroke-width: 0.8; stroke-linejoin: miter; stroke-linecap: square"/>
   </g>
   <g id="patch_4">
    <path d="M 777.6 320.4 
L 777.6 43.2 
" style="fill: none"/>
   </g>
   <g id="patch_5">
    <path d="M 108 320.4 
L 777.6 320.4 
" style="fill: none; stroke: #a9a9a9; stroke-width: 0.8; stroke-linejoin: miter; stroke-linecap: square"/>
   </g>
   <g id="patch_6">
    <path d="M 108 43.2 
L 777.6 43.2 
" style="fill: none"/>
   </g>
   <g id="text_18">
    <!-- get_subscribe history -->
    <g style="fill: #a9a9a9" transform="translate(378.6075 37.2) scale(0.12 -0.12)">
     <defs>
      <path id="DejaVuSans-67" d="M 2906 1791 
Q 2906 2416 2648 2759 
Q 2391 3103 1925 3103 
Q 1463 3103 1205 2759 
Q 947 2416 947 1791 
Q 947 1169 1205 825 
Q 1463 481 1925 481 
Q 2391 481 2648 825 
Q 2906 1169 2906 1791 
z
M 3481 434 
Q 3481 -459 3084 -895 
Q 2688 -1331 1869 -1331 
Q 1566 -1331 1297 -1286 
Q 1028 -1241 775 -1147 
L 775 -588 
Q 1028 -725 1275 -790 
Q 1522 -856 1778 -856 
Q 2344 -856 2625 -561 
Q 2906 -266 2906 331 
L 2906 616 
Q 2728 306 2450 153 
Q 2172 0 1784 0 
Q 1141 0 747 490 
Q 353 981 353 1791 
Q 353 2603 747 3093 
Q 1141 3584 1784 3584 
Q 2172 3584 2450 3431 
Q 2728 3278 2906 2969 
L 2906 3500 
L 3481 3500 
L 3481 434 
z
" transform="scale(0.015625)"/>
      <path id="DejaVuSans-65" d="M 3597 1894 
L 3597 1613 
L 953 1613 
Q 991 1019 1311 708 
Q 1631 397 2203 397 
Q 2534 397 2845 478 
Q 3156 559 3463 722 
L 3463 178 
Q 3153 47 2828 -22 
Q 2503 -91 2169 -91 
Q 1331 -91 842 396 
Q 353 884 353 1716 
Q 353 2575 817 3079 
Q 1281 3584 2069 3584 
Q 2775 3584 3186 3129 
Q 3597 2675 3597 1894 
z
M 3022 2063 
Q 3016 2534 2758 2815 
Q 2500 3097 2075 3097 
Q 1594 3097 1305 2825 
Q 1016 2553 972 2059 
L 3022 2063 
z
" transform="scale(0.015625)"/>
      <path id="DejaVuSans-74" d="M 1172 4494 
L 1172 3500 
L 2356 3500 
L 2356 3053 
L 1172 3053 
L 1172 1153 
Q 1172 725 1289 603 
Q 1406 481 1766 481 
L 2356 481 
L 2356 0 
L 1766 0 
Q 1100 0 847 248 
Q 594 497 594 1153 
L 594 3053 
L 172 3053 
L 172 3500 
L 594 3500 
L 594 4494 
L 1172 4494 
z
" transform="scale(0.015625)"/>
      <path id="DejaVuSans-5f" d="M 3263 -1063 
L 3263 -1509 
L -63 -1509 
L -63 -1063 
L 3263 -1063 
z
" transform="scale(0.015625)"/>
      <path id="DejaVuSans-73" d="M 2834 3397 
L 2834 2853 
Q 2591 2978 2328 3040 
Q 2066 3103 1784 3103 
Q 1356 3103 1142 2972 
Q 928 2841 928 2578 
Q 928 2378 1081 2264 
Q 1234 2150 1697 2047 
L 1894 2003 
Q 2506 1872 2764 1633 
Q 3022 1394 3022 966 
Q 3022 478 2636 193 
Q 2250 -91 1575 -91 
Q 1294 -91 989 -36 
Q 684 19 347 128 
L 347 722 
Q 666 556 975 473 
Q 1284 391 1588 391 
Q 1994 391 2212 530 
Q 2431 669 2431 922 
Q 2431 1156 2273 1281 
Q 2116 1406 1581 1522 
L 1381 1569 
Q 847 1681 609 1914 
Q 372 2147 372 2553 
Q 372 3047 722 3315 
Q 1072 3584 1716 3584 
Q 2034 3584 2315 3537 
Q 2597 3491 2834 3397 
z
" transform="scale(0.015625)"/>
      <path id="DejaVuSans-75" d="M 544 1381 
L 544 3500 
L 1119 3500 
L 1119 1403 
Q 1119 906 1312 657 
Q 1506 409 1894 409 
Q 2359 409 2629 706 
Q 2900 1003 2900 1516 
L 2900 3500 
L 3475 3500 
L 3475 0 
L 2900 0 
L 2900 538 
Q 2691 219 2414 64 
Q 2138 -91 1772 -91 
Q 1169 -91 856 284 
Q 544 659 544 1381 
z
M 1991 3584 
L 1991 3584 
z
" transform="scale(0.015625)"/>
      <path id="DejaVuSans-62" d="M 3116 1747 
Q 3116 2381 2855 2742 
Q 2594 3103 2138 3103 
Q 1681 3103 1420 2742 
Q 1159 2381 1159 1747 
Q 1159 1113 1420 752 
Q 1681 391 2138 391 
Q 2594 391 2855 752 
Q 3116 1113 3116 1747 
z
M 1159 2969 
Q 1341 3281 1617 3432 
Q 1894 3584 2278 3584 
Q 2916 3584 3314 3078 
Q 3713 2572 3713 1747 
Q 3713 922 3314 415 
Q 2916 -91 2278 -91 
Q 1894 -91 1617 61 
Q 1341 213 1159 525 
L 1159 0 
L 581 0 
L 581 4863 
L 1159 4863 
L 1159 2969 
z
" transform="scale(0.015625)"/>
      <path id="DejaVuSans-63" d="M 3122 3366 
L 3122 2828 
Q 2878 2963 2633 3030 
Q 2388 3097 2138 3097 
Q 1578 3097 1268 2742 
Q 959 2388 959 1747 
Q 959 1106 1268 751 
Q 1578 397 2138 397 
Q 2388 397 2633 464 
Q 2878 531 3122 666 
L 3122 134 
Q 2881 22 2623 -34 
Q 2366 -91 2075 -91 
Q 1284 -91 818 406 
Q 353 903 353 1747 
Q 353 2603 823 3093 
Q 1294 3584 2113 3584 
Q 2378 3584 2631 3529 
Q 2884 3475 3122 3366 
z
" transform="scale(0.015625)"/>
      <path id="DejaVuSans-72" d="M 2631 2963 
Q 2534 3019 2420 3045 
Q 2306 3072 2169 3072 
Q 1681 3072 1420 2755 
Q 1159 2438 1159 1844 
L 1159 0 
L 581 0 
L 581 3500 
L 1159 3500 
L 1159 2956 
Q 1341 3275 1631 3429 
Q 1922 3584 2338 3584 
Q 2397 3584 2469 3576 
Q 2541 3569 2628 3553 
L 2631 2963 
z
" transform="scale(0.015625)"/>
      <path id="DejaVuSans-69" d="M 603 3500 
L 1178 3500 
L 1178 0 
L 603 0 
L 603 3500 
z
M 603 4863 
L 1178 4863 
L 1178 4134 
L 603 4134 
L 603 4863 
z
" transform="scale(0.015625)"/>
      <path id="DejaVuSans-20" transform="scale(0.015625)"/>
      <path id="DejaVuSans-68" d="M 3513 2113 
L 3513 0 
L 2938 0 
L 2938 2094 
Q 2938 2591 2744 2837 
Q 2550 3084 2163 3084 
Q 1697 3084 1428 2787 
Q 1159 2491 1159 1978 
L 1159 0 
L 581 0 
L 581 4863 
L 1159 4863 
L 1159 2956 
Q 1366 3272 1645 3428 
Q 1925 3584 2291 3584 
Q 2894 3584 3203 3211 
Q 3513 2838 3513 2113 
z
" transform="scale(0.015625)"/>
      <path id="DejaVuSans-6f" d="M 1959 3097 
Q 1497 3097 1228 2736 
Q 959 2375 959 1747 
Q 959 1119 1226 758 
Q 1494 397 1959 397 
Q 2419 397 2687 759 
Q 2956 1122 2956 1747 
Q 2956 2369 2687 2733 
Q 2419 3097 1959 3097 
z
M 1959 3584 
Q 2709 3584 3137 3096 
Q 3566 2609 3566 1747 
Q 3566 888 3137 398 
Q 2709 -91 1959 -91 
Q 1206 -91 779 398 
Q 353 888 353 1747 
Q 353 2609 779 3096 
Q 1206 3584 1959 3584 
z
" transform="scale(0.015625)"/>
      <path id="DejaVuSans-79" d="M 2059 -325 
Q 1816 -950 1584 -1140 
Q 1353 -1331 966 -1331 
L 506 -1331 
L 506 -850 
L 844 -850 
Q 1081 -850 1212 -737 
Q 1344 -625 1503 -206 
L 1606 56 
L 191 3500 
L 800 3500 
L 1894 763 
L 2988 3500 
L 3597 3500 
L 2059 -325 
z
" transform="scale(0.015625)"/>
     </defs>
     <use xlink:href="#DejaVuSans-67"/>
     <use xlink:href="#DejaVuSans-65" x="63.476562"/>
     <use xlink:href="#DejaVuSans-74" x="125"/>
     <use xlink:href="#DejaVuSans-5f" x="164.208984"/>
     <use xlink:href="#DejaVuSans-73" x="214.208984"/>
     <use xlink:href="#DejaVuSans-75" x="266.308594"/>
     <use xlink:href="#DejaVuSans-62" x="329.6875"/>
     <use xlink:href="#DejaVuSans-73" x="393.164062"/>
     <use xlink:href="#DejaVuSans-63" x="445.263672"/>
     <use xlink:href="#DejaVuSans-72" x="500.244141"/>
     <use xlink:href="#DejaVuSans-69" x="541.357422"/>
     <use xlink:href="#DejaVuSans-62" x="569.140625"/>
     <use xlink:href="#DejaVuSans-65" x="632.617188"/>
     <use xlink:href="#DejaVuSans-20" x="694.140625"/>
     <use xlink:href="#DejaVuSans-68" x="725.927734"/>
     <use xlink:href="#DejaVuSans-69" x="789.306641"/>
     <use xlink:href="#DejaVuSans-73" x="817.089844"/>
     <use xlink:href="#DejaVuSans-74" x="869.189453"/>
     <use xlink:href="#DejaVuSans-6f" x="908.398438"/>
     <use xlink:href="#DejaVuSans-72" x="969.580078"/>
     <use xlink:href="#DejaVuSans-79" x="1010.693359"/>
    </g>
   </g>
   <g id="legend_1">
    <g id="line2d_37">
     <path d="M 815.08 328.498438 
L 825.08 328.498438 
L 835.08 328.498438 
" style="fill: none; stroke: #1f77b4; stroke-width: 1.5; stroke-linecap: square"/>
    </g>
    <g id="text_19">
     <!-- star -->
     <g style="fill: #a9a9a9" transform="translate(843.08 331.998438) scale(0.1 -0.1)">
      <defs>
       <path id="DejaVuSans-61" d="M 2194 1759 
Q 1497 1759 1228 1600 
Q 959 1441 959 1056 
Q 959 750 1161 570 
Q 1363 391 1709 391 
Q 2188 391 2477 730 
Q 2766 1069 2766 1631 
L 2766 1759 
L 2194 1759 
z
M 3341 1997 
L 3341 0 
L 2766 0 
L 2766 531 
Q 2569 213 2275 61 
Q 1981 -91 1556 -91 
Q 1019 -91 701 211 
Q 384 513 384 1019 
Q 384 1609 779 1909 
Q 1175 2209 1959 2209 
L 2766 2209 
L 2766 2266 
Q 2766 2663 2505 2880 
Q 2244 3097 1772 3097 
Q 1472 3097 1187 3025 
Q 903 2953 641 2809 
L 641 3341 
Q 956 3463 1253 3523 
Q 1550 3584 1831 3584 
Q 2591 3584 2966 3190 
Q 3341 2797 3341 1997 
z
" transform="scale(0.015625)"/>
      </defs>
      <use xlink:href="#DejaVuSans-73"/>
      <use xlink:href="#DejaVuSans-74" x="52.099609"/>
      <use xlink:href="#DejaVuSans-61" x="91.308594"/>
      <use xlink:href="#DejaVuSans-72" x="152.587891"/>
     </g>
    </g>
    <g id="line2d_38">
     <path d="M 815.08 343.176562 
L 825.08 343.176562 
L 835.08 343.176562 
" style="fill: none; stroke: #ff7f0e; stroke-width: 1.5; stroke-linecap: square"/>
    </g>
    <g id="text_20">
     <!-- fork -->
     <g style="fill: #a9a9a9" transform="translate(843.08 346.676562) scale(0.1 -0.1)">
      <defs>
       <path id="DejaVuSans-66" d="M 2375 4863 
L 2375 4384 
L 1825 4384 
Q 1516 4384 1395 4259 
Q 1275 4134 1275 3809 
L 1275 3500 
L 2222 3500 
L 2222 3053 
L 1275 3053 
L 1275 0 
L 697 0 
L 697 3053 
L 147 3053 
L 147 3500 
L 697 3500 
L 697 3744 
Q 697 4328 969 4595 
Q 1241 4863 1831 4863 
L 2375 4863 
z
" transform="scale(0.015625)"/>
       <path id="DejaVuSans-6b" d="M 581 4863 
L 1159 4863 
L 1159 1991 
L 2875 3500 
L 3609 3500 
L 1753 1863 
L 3688 0 
L 2938 0 
L 1159 1709 
L 1159 0 
L 581 0 
L 581 4863 
z
" transform="scale(0.015625)"/>
      </defs>
      <use xlink:href="#DejaVuSans-66"/>
      <use xlink:href="#DejaVuSans-6f" x="35.205078"/>
      <use xlink:href="#DejaVuSans-72" x="96.386719"/>
      <use xlink:href="#DejaVuSans-6b" x="137.5"/>
     </g>
    </g>
   </g>
  </g>
 </g>
 <defs>
  <clipPath id="p81c8a62687">
   <rect x="108" y="43.2" width="669.6" height="277.2"/>
  </clipPath>
 </defs>
</svg>
