<?xml version="1.0" encoding="utf-8" standalone="no"?>
<!DOCTYPE svg PUBLIC "-//W3C//DTD SVG 1.1//EN"
  "http://www.w3.org/Graphics/SVG/1.1/DTD/svg11.dtd">
<svg xmlns:xlink="http://www.w3.org/1999/xlink" width="864pt" height="360pt" viewBox="0 0 864 360" xmlns="http://www.w3.org/2000/svg" version="1.1">
 <metadata>
  <rdf:RDF xmlns:dc="http://purl.org/dc/elements/1.1/" xmlns:cc="http://creativecommons.org/ns#" xmlns:rdf="http://www.w3.org/1999/02/22-rdf-syntax-ns#">
   <cc:Work>
    <dc:type rdf:resource="http://purl.org/dc/dcmitype/StillImage"/>
    <dc:date>2023-04-24T20:20:39.154342</dc:date>
    <dc:format>image/svg+xml</dc:format>
    <dc:creator>
     <cc:Agent>
      <dc:title>Matplotlib v3.7.1, https://matplotlib.org/</dc:title>
     </cc:Agent>
    </dc:creator>
   </cc:Work>
  </rdf:RDF>
 </metadata>
 <defs>
  <style type="text/css">*{stroke-linejoin: round; stroke-linecap: butt}</style>
 </defs>
 <g id="figure_1">
  <g id="patch_1">
   <path d="M 0 360 
L 864 360 
L 864 0 
L 0 0 
L 0 360 
z
" style="fill: none; opacity: 0"/>
  </g>
  <g id="axes_1">
   <g id="patch_2">
    <path d="M 108 320.4 
L 777.6 320.4 
L 777.6 43.2 
L 108 43.2 
L 108 320.4 
z
" style="fill: none; opacity: 0"/>
   </g>
   <g id="matplotlib.axis_1">
    <g id="xtick_1">
     <g id="line2d_1">
      <path d="M 116.525992 320.4 
L 116.525992 43.2 
" clip-path="url(#pfdfe239402)" style="fill: none; stroke-dasharray: 5.12,1.28,0.8,1.28; stroke-dashoffset: 0; stroke: #b0b0b0; stroke-width: 0.8"/>
     </g>
     <g id="line2d_2">
      <defs>
       <path id="mb61a44d3cd" d="M 0 0 
L 0 3.5 
" style="stroke: #a9a9a9; stroke-width: 0.8"/>
      </defs>
      <g>
       <use xlink:href="#mb61a44d3cd" x="116.525992" y="320.4" style="fill: #a9a9a9; stroke: #a9a9a9; stroke-width: 0.8"/>
      </g>
     </g>
     <g id="text_1">
      <!-- 2021-07 -->
      <g style="fill: #a9a9a9" transform="translate(95.634586 334.998438) scale(0.1 -0.1)">
       <defs>
        <path id="DejaVuSans-32" d="M 1228 531 
L 3431 531 
L 3431 0 
L 469 0 
L 469 531 
Q 828 903 1448 1529 
Q 2069 2156 2228 2338 
Q 2531 2678 2651 2914 
Q 2772 3150 2772 3378 
Q 2772 3750 2511 3984 
Q 2250 4219 1831 4219 
Q 1534 4219 1204 4116 
Q 875 4013 500 3803 
L 500 4441 
Q 881 4594 1212 4672 
Q 1544 4750 1819 4750 
Q 2544 4750 2975 4387 
Q 3406 4025 3406 3419 
Q 3406 3131 3298 2873 
Q 3191 2616 2906 2266 
Q 2828 2175 2409 1742 
Q 1991 1309 1228 531 
z
" transform="scale(0.015625)"/>
        <path id="DejaVuSans-30" d="M 2034 4250 
Q 1547 4250 1301 3770 
Q 1056 3291 1056 2328 
Q 1056 1369 1301 889 
Q 1547 409 2034 409 
Q 2525 409 2770 889 
Q 3016 1369 3016 2328 
Q 3016 3291 2770 3770 
Q 2525 4250 2034 4250 
z
M 2034 4750 
Q 2819 4750 3233 4129 
Q 3647 3509 3647 2328 
Q 3647 1150 3233 529 
Q 2819 -91 2034 -91 
Q 1250 -91 836 529 
Q 422 1150 422 2328 
Q 422 3509 836 4129 
Q 1250 4750 2034 4750 
z
" transform="scale(0.015625)"/>
        <path id="DejaVuSans-31" d="M 794 531 
L 1825 531 
L 1825 4091 
L 703 3866 
L 703 4441 
L 1819 4666 
L 2450 4666 
L 2450 531 
L 3481 531 
L 3481 0 
L 794 0 
L 794 531 
z
" transform="scale(0.015625)"/>
        <path id="DejaVuSans-2d" d="M 313 2009 
L 1997 2009 
L 1997 1497 
L 313 1497 
L 313 2009 
z
" transform="scale(0.015625)"/>
        <path id="DejaVuSans-37" d="M 525 4666 
L 3525 4666 
L 3525 4397 
L 1831 0 
L 1172 0 
L 2766 4134 
L 525 4134 
L 525 4666 
z
" transform="scale(0.015625)"/>
       </defs>
       <use xlink:href="#DejaVuSans-32"/>
       <use xlink:href="#DejaVuSans-30" x="63.623047"/>
       <use xlink:href="#DejaVuSans-32" x="127.246094"/>
       <use xlink:href="#DejaVuSans-31" x="190.869141"/>
       <use xlink:href="#DejaVuSans-2d" x="254.492188"/>
       <use xlink:href="#DejaVuSans-30" x="290.576172"/>
       <use xlink:href="#DejaVuSans-37" x="354.199219"/>
      </g>
     </g>
    </g>
    <g id="xtick_2">
     <g id="line2d_3">
      <path d="M 204.167478 320.4 
L 204.167478 43.2 
" clip-path="url(#pfdfe239402)" style="fill: none; stroke-dasharray: 5.12,1.28,0.8,1.28; stroke-dashoffset: 0; stroke: #b0b0b0; stroke-width: 0.8"/>
     </g>
     <g id="line2d_4">
      <g>
       <use xlink:href="#mb61a44d3cd" x="204.167478" y="320.4" style="fill: #a9a9a9; stroke: #a9a9a9; stroke-width: 0.8"/>
      </g>
     </g>
     <g id="text_2">
      <!-- 2021-10 -->
      <g style="fill: #a9a9a9" transform="translate(183.276071 334.998438) scale(0.1 -0.1)">
       <use xlink:href="#DejaVuSans-32"/>
       <use xlink:href="#DejaVuSans-30" x="63.623047"/>
       <use xlink:href="#DejaVuSans-32" x="127.246094"/>
       <use xlink:href="#DejaVuSans-31" x="190.869141"/>
       <use xlink:href="#DejaVuSans-2d" x="254.492188"/>
       <use xlink:href="#DejaVuSans-31" x="290.576172"/>
       <use xlink:href="#DejaVuSans-30" x="354.199219"/>
      </g>
     </g>
    </g>
    <g id="xtick_3">
     <g id="line2d_5">
      <path d="M 291.808963 320.4 
L 291.808963 43.2 
" clip-path="url(#pfdfe239402)" style="fill: none; stroke-dasharray: 5.12,1.28,0.8,1.28; stroke-dashoffset: 0; stroke: #b0b0b0; stroke-width: 0.8"/>
     </g>
     <g id="line2d_6">
      <g>
       <use xlink:href="#mb61a44d3cd" x="291.808963" y="320.4" style="fill: #a9a9a9; stroke: #a9a9a9; stroke-width: 0.8"/>
      </g>
     </g>
     <g id="text_3">
      <!-- 2022-01 -->
      <g style="fill: #a9a9a9" transform="translate(270.917557 334.998438) scale(0.1 -0.1)">
       <use xlink:href="#DejaVuSans-32"/>
       <use xlink:href="#DejaVuSans-30" x="63.623047"/>
       <use xlink:href="#DejaVuSans-32" x="127.246094"/>
       <use xlink:href="#DejaVuSans-32" x="190.869141"/>
       <use xlink:href="#DejaVuSans-2d" x="254.492188"/>
       <use xlink:href="#DejaVuSans-30" x="290.576172"/>
       <use xlink:href="#DejaVuSans-31" x="354.199219"/>
      </g>
     </g>
    </g>
    <g id="xtick_4">
     <g id="line2d_7">
      <path d="M 377.545198 320.4 
L 377.545198 43.2 
" clip-path="url(#pfdfe239402)" style="fill: none; stroke-dasharray: 5.12,1.28,0.8,1.28; stroke-dashoffset: 0; stroke: #b0b0b0; stroke-width: 0.8"/>
     </g>
     <g id="line2d_8">
      <g>
       <use xlink:href="#mb61a44d3cd" x="377.545198" y="320.4" style="fill: #a9a9a9; stroke: #a9a9a9; stroke-width: 0.8"/>
      </g>
     </g>
     <g id="text_4">
      <!-- 2022-04 -->
      <g style="fill: #a9a9a9" transform="translate(356.653792 334.998438) scale(0.1 -0.1)">
       <defs>
        <path id="DejaVuSans-34" d="M 2419 4116 
L 825 1625 
L 2419 1625 
L 2419 4116 
z
M 2253 4666 
L 3047 4666 
L 3047 1625 
L 3713 1625 
L 3713 1100 
L 3047 1100 
L 3047 0 
L 2419 0 
L 2419 1100 
L 313 1100 
L 313 1709 
L 2253 4666 
z
" transform="scale(0.015625)"/>
       </defs>
       <use xlink:href="#DejaVuSans-32"/>
       <use xlink:href="#DejaVuSans-30" x="63.623047"/>
       <use xlink:href="#DejaVuSans-32" x="127.246094"/>
       <use xlink:href="#DejaVuSans-32" x="190.869141"/>
       <use xlink:href="#DejaVuSans-2d" x="254.492188"/>
       <use xlink:href="#DejaVuSans-30" x="290.576172"/>
       <use xlink:href="#DejaVuSans-34" x="354.199219"/>
      </g>
     </g>
    </g>
    <g id="xtick_5">
     <g id="line2d_9">
      <path d="M 464.234059 320.4 
L 464.234059 43.2 
" clip-path="url(#pfdfe239402)" style="fill: none; stroke-dasharray: 5.12,1.28,0.8,1.28; stroke-dashoffset: 0; stroke: #b0b0b0; stroke-width: 0.8"/>
     </g>
     <g id="line2d_10">
      <g>
       <use xlink:href="#mb61a44d3cd" x="464.234059" y="320.4" style="fill: #a9a9a9; stroke: #a9a9a9; stroke-width: 0.8"/>
      </g>
     </g>
     <g id="text_5">
      <!-- 2022-07 -->
      <g style="fill: #a9a9a9" transform="translate(443.342653 334.998438) scale(0.1 -0.1)">
       <use xlink:href="#DejaVuSans-32"/>
       <use xlink:href="#DejaVuSans-30" x="63.623047"/>
       <use xlink:href="#DejaVuSans-32" x="127.246094"/>
       <use xlink:href="#DejaVuSans-32" x="190.869141"/>
       <use xlink:href="#DejaVuSans-2d" x="254.492188"/>
       <use xlink:href="#DejaVuSans-30" x="290.576172"/>
       <use xlink:href="#DejaVuSans-37" x="354.199219"/>
      </g>
     </g>
    </g>
    <g id="xtick_6">
     <g id="line2d_11">
      <path d="M 551.875544 320.4 
L 551.875544 43.2 
" clip-path="url(#pfdfe239402)" style="fill: none; stroke-dasharray: 5.12,1.28,0.8,1.28; stroke-dashoffset: 0; stroke: #b0b0b0; stroke-width: 0.8"/>
     </g>
     <g id="line2d_12">
      <g>
       <use xlink:href="#mb61a44d3cd" x="551.875544" y="320.4" style="fill: #a9a9a9; stroke: #a9a9a9; stroke-width: 0.8"/>
      </g>
     </g>
     <g id="text_6">
      <!-- 2022-10 -->
      <g style="fill: #a9a9a9" transform="translate(530.984138 334.998438) scale(0.1 -0.1)">
       <use xlink:href="#DejaVuSans-32"/>
       <use xlink:href="#DejaVuSans-30" x="63.623047"/>
       <use xlink:href="#DejaVuSans-32" x="127.246094"/>
       <use xlink:href="#DejaVuSans-32" x="190.869141"/>
       <use xlink:href="#DejaVuSans-2d" x="254.492188"/>
       <use xlink:href="#DejaVuSans-31" x="290.576172"/>
       <use xlink:href="#DejaVuSans-30" x="354.199219"/>
      </g>
     </g>
    </g>
    <g id="xtick_7">
     <g id="line2d_13">
      <path d="M 639.517029 320.4 
L 639.517029 43.2 
" clip-path="url(#pfdfe239402)" style="fill: none; stroke-dasharray: 5.12,1.28,0.8,1.28; stroke-dashoffset: 0; stroke: #b0b0b0; stroke-width: 0.8"/>
     </g>
     <g id="line2d_14">
      <g>
       <use xlink:href="#mb61a44d3cd" x="639.517029" y="320.4" style="fill: #a9a9a9; stroke: #a9a9a9; stroke-width: 0.8"/>
      </g>
     </g>
     <g id="text_7">
      <!-- 2023-01 -->
      <g style="fill: #a9a9a9" transform="translate(618.625623 334.998438) scale(0.1 -0.1)">
       <defs>
        <path id="DejaVuSans-33" d="M 2597 2516 
Q 3050 2419 3304 2112 
Q 3559 1806 3559 1356 
Q 3559 666 3084 287 
Q 2609 -91 1734 -91 
Q 1441 -91 1130 -33 
Q 819 25 488 141 
L 488 750 
Q 750 597 1062 519 
Q 1375 441 1716 441 
Q 2309 441 2620 675 
Q 2931 909 2931 1356 
Q 2931 1769 2642 2001 
Q 2353 2234 1838 2234 
L 1294 2234 
L 1294 2753 
L 1863 2753 
Q 2328 2753 2575 2939 
Q 2822 3125 2822 3475 
Q 2822 3834 2567 4026 
Q 2313 4219 1838 4219 
Q 1578 4219 1281 4162 
Q 984 4106 628 3988 
L 628 4550 
Q 988 4650 1302 4700 
Q 1616 4750 1894 4750 
Q 2613 4750 3031 4423 
Q 3450 4097 3450 3541 
Q 3450 3153 3228 2886 
Q 3006 2619 2597 2516 
z
" transform="scale(0.015625)"/>
       </defs>
       <use xlink:href="#DejaVuSans-32"/>
       <use xlink:href="#DejaVuSans-30" x="63.623047"/>
       <use xlink:href="#DejaVuSans-32" x="127.246094"/>
       <use xlink:href="#DejaVuSans-33" x="190.869141"/>
       <use xlink:href="#DejaVuSans-2d" x="254.492188"/>
       <use xlink:href="#DejaVuSans-30" x="290.576172"/>
       <use xlink:href="#DejaVuSans-31" x="354.199219"/>
      </g>
     </g>
    </g>
    <g id="xtick_8">
     <g id="line2d_15">
      <path d="M 725.253265 320.4 
L 725.253265 43.2 
" clip-path="url(#pfdfe239402)" style="fill: none; stroke-dasharray: 5.12,1.28,0.8,1.28; stroke-dashoffset: 0; stroke: #b0b0b0; stroke-width: 0.8"/>
     </g>
     <g id="line2d_16">
      <g>
       <use xlink:href="#mb61a44d3cd" x="725.253265" y="320.4" style="fill: #a9a9a9; stroke: #a9a9a9; stroke-width: 0.8"/>
      </g>
     </g>
     <g id="text_8">
      <!-- 2023-04 -->
      <g style="fill: #a9a9a9" transform="translate(704.361859 334.998438) scale(0.1 -0.1)">
       <use xlink:href="#DejaVuSans-32"/>
       <use xlink:href="#DejaVuSans-30" x="63.623047"/>
       <use xlink:href="#DejaVuSans-32" x="127.246094"/>
       <use xlink:href="#DejaVuSans-33" x="190.869141"/>
       <use xlink:href="#DejaVuSans-2d" x="254.492188"/>
       <use xlink:href="#DejaVuSans-30" x="290.576172"/>
       <use xlink:href="#DejaVuSans-34" x="354.199219"/>
      </g>
     </g>
    </g>
   </g>
   <g id="matplotlib.axis_2">
    <g id="ytick_1">
     <g id="line2d_17">
      <path d="M 108 307.859448 
L 777.6 307.859448 
" clip-path="url(#pfdfe239402)" style="fill: none; stroke-dasharray: 5.12,1.28,0.8,1.28; stroke-dashoffset: 0; stroke: #b0b0b0; stroke-width: 0.8"/>
     </g>
     <g id="line2d_18">
      <defs>
       <path id="mec09779e87" d="M 0 0 
L -3.5 0 
" style="stroke: #a9a9a9; stroke-width: 0.8"/>
      </defs>
      <g>
       <use xlink:href="#mec09779e87" x="108" y="307.859448" style="fill: #a9a9a9; stroke: #a9a9a9; stroke-width: 0.8"/>
      </g>
     </g>
     <g id="text_9">
      <!-- 0 -->
      <g style="fill: #a9a9a9" transform="translate(94.6375 311.658667) scale(0.1 -0.1)">
       <use xlink:href="#DejaVuSans-30"/>
      </g>
     </g>
    </g>
    <g id="ytick_2">
     <g id="line2d_19">
      <path d="M 108 278.135456 
L 777.6 278.135456 
" clip-path="url(#pfdfe239402)" style="fill: none; stroke-dasharray: 5.12,1.28,0.8,1.28; stroke-dashoffset: 0; stroke: #b0b0b0; stroke-width: 0.8"/>
     </g>
     <g id="line2d_20">
      <g>
       <use xlink:href="#mec09779e87" x="108" y="278.135456" style="fill: #a9a9a9; stroke: #a9a9a9; stroke-width: 0.8"/>
      </g>
     </g>
     <g id="text_10">
      <!-- 500 -->
      <g style="fill: #a9a9a9" transform="translate(81.9125 281.934675) scale(0.1 -0.1)">
       <defs>
        <path id="DejaVuSans-35" d="M 691 4666 
L 3169 4666 
L 3169 4134 
L 1269 4134 
L 1269 2991 
Q 1406 3038 1543 3061 
Q 1681 3084 1819 3084 
Q 2600 3084 3056 2656 
Q 3513 2228 3513 1497 
Q 3513 744 3044 326 
Q 2575 -91 1722 -91 
Q 1428 -91 1123 -41 
Q 819 9 494 109 
L 494 744 
Q 775 591 1075 516 
Q 1375 441 1709 441 
Q 2250 441 2565 725 
Q 2881 1009 2881 1497 
Q 2881 1984 2565 2268 
Q 2250 2553 1709 2553 
Q 1456 2553 1204 2497 
Q 953 2441 691 2322 
L 691 4666 
z
" transform="scale(0.015625)"/>
       </defs>
       <use xlink:href="#DejaVuSans-35"/>
       <use xlink:href="#DejaVuSans-30" x="63.623047"/>
       <use xlink:href="#DejaVuSans-30" x="127.246094"/>
      </g>
     </g>
    </g>
    <g id="ytick_3">
     <g id="line2d_21">
      <path d="M 108 248.411465 
L 777.6 248.411465 
" clip-path="url(#pfdfe239402)" style="fill: none; stroke-dasharray: 5.12,1.28,0.8,1.28; stroke-dashoffset: 0; stroke: #b0b0b0; stroke-width: 0.8"/>
     </g>
     <g id="line2d_22">
      <g>
       <use xlink:href="#mec09779e87" x="108" y="248.411465" style="fill: #a9a9a9; stroke: #a9a9a9; stroke-width: 0.8"/>
      </g>
     </g>
     <g id="text_11">
      <!-- 1000 -->
      <g style="fill: #a9a9a9" transform="translate(75.55 252.210684) scale(0.1 -0.1)">
       <use xlink:href="#DejaVuSans-31"/>
       <use xlink:href="#DejaVuSans-30" x="63.623047"/>
       <use xlink:href="#DejaVuSans-30" x="127.246094"/>
       <use xlink:href="#DejaVuSans-30" x="190.869141"/>
      </g>
     </g>
    </g>
    <g id="ytick_4">
     <g id="line2d_23">
      <path d="M 108 218.687473 
L 777.6 218.687473 
" clip-path="url(#pfdfe239402)" style="fill: none; stroke-dasharray: 5.12,1.28,0.8,1.28; stroke-dashoffset: 0; stroke: #b0b0b0; stroke-width: 0.8"/>
     </g>
     <g id="line2d_24">
      <g>
       <use xlink:href="#mec09779e87" x="108" y="218.687473" style="fill: #a9a9a9; stroke: #a9a9a9; stroke-width: 0.8"/>
      </g>
     </g>
     <g id="text_12">
      <!-- 1500 -->
      <g style="fill: #a9a9a9" transform="translate(75.55 222.486692) scale(0.1 -0.1)">
       <use xlink:href="#DejaVuSans-31"/>
       <use xlink:href="#DejaVuSans-35" x="63.623047"/>
       <use xlink:href="#DejaVuSans-30" x="127.246094"/>
       <use xlink:href="#DejaVuSans-30" x="190.869141"/>
      </g>
     </g>
    </g>
    <g id="ytick_5">
     <g id="line2d_25">
      <path d="M 108 188.963482 
L 777.6 188.963482 
" clip-path="url(#pfdfe239402)" style="fill: none; stroke-dasharray: 5.12,1.28,0.8,1.28; stroke-dashoffset: 0; stroke: #b0b0b0; stroke-width: 0.8"/>
     </g>
     <g id="line2d_26">
      <g>
       <use xlink:href="#mec09779e87" x="108" y="188.963482" style="fill: #a9a9a9; stroke: #a9a9a9; stroke-width: 0.8"/>
      </g>
     </g>
     <g id="text_13">
      <!-- 2000 -->
      <g style="fill: #a9a9a9" transform="translate(75.55 192.762701) scale(0.1 -0.1)">
       <use xlink:href="#DejaVuSans-32"/>
       <use xlink:href="#DejaVuSans-30" x="63.623047"/>
       <use xlink:href="#DejaVuSans-30" x="127.246094"/>
       <use xlink:href="#DejaVuSans-30" x="190.869141"/>
      </g>
     </g>
    </g>
    <g id="ytick_6">
     <g id="line2d_27">
      <path d="M 108 159.23949 
L 777.6 159.23949 
" clip-path="url(#pfdfe239402)" style="fill: none; stroke-dasharray: 5.12,1.28,0.8,1.28; stroke-dashoffset: 0; stroke: #b0b0b0; stroke-width: 0.8"/>
     </g>
     <g id="line2d_28">
      <g>
       <use xlink:href="#mec09779e87" x="108" y="159.23949" style="fill: #a9a9a9; stroke: #a9a9a9; stroke-width: 0.8"/>
      </g>
     </g>
     <g id="text_14">
      <!-- 2500 -->
      <g style="fill: #a9a9a9" transform="translate(75.55 163.038709) scale(0.1 -0.1)">
       <use xlink:href="#DejaVuSans-32"/>
       <use xlink:href="#DejaVuSans-35" x="63.623047"/>
       <use xlink:href="#DejaVuSans-30" x="127.246094"/>
       <use xlink:href="#DejaVuSans-30" x="190.869141"/>
      </g>
     </g>
    </g>
    <g id="ytick_7">
     <g id="line2d_29">
      <path d="M 108 129.515499 
L 777.6 129.515499 
" clip-path="url(#pfdfe239402)" style="fill: none; stroke-dasharray: 5.12,1.28,0.8,1.28; stroke-dashoffset: 0; stroke: #b0b0b0; stroke-width: 0.8"/>
     </g>
     <g id="line2d_30">
      <g>
       <use xlink:href="#mec09779e87" x="108" y="129.515499" style="fill: #a9a9a9; stroke: #a9a9a9; stroke-width: 0.8"/>
      </g>
     </g>
     <g id="text_15">
      <!-- 3000 -->
      <g style="fill: #a9a9a9" transform="translate(75.55 133.314718) scale(0.1 -0.1)">
       <use xlink:href="#DejaVuSans-33"/>
       <use xlink:href="#DejaVuSans-30" x="63.623047"/>
       <use xlink:href="#DejaVuSans-30" x="127.246094"/>
       <use xlink:href="#DejaVuSans-30" x="190.869141"/>
      </g>
     </g>
    </g>
    <g id="ytick_8">
     <g id="line2d_31">
      <path d="M 108 99.791507 
L 777.6 99.791507 
" clip-path="url(#pfdfe239402)" style="fill: none; stroke-dasharray: 5.12,1.28,0.8,1.28; stroke-dashoffset: 0; stroke: #b0b0b0; stroke-width: 0.8"/>
     </g>
     <g id="line2d_32">
      <g>
       <use xlink:href="#mec09779e87" x="108" y="99.791507" style="fill: #a9a9a9; stroke: #a9a9a9; stroke-width: 0.8"/>
      </g>
     </g>
     <g id="text_16">
      <!-- 3500 -->
      <g style="fill: #a9a9a9" transform="translate(75.55 103.590726) scale(0.1 -0.1)">
       <use xlink:href="#DejaVuSans-33"/>
       <use xlink:href="#DejaVuSans-35" x="63.623047"/>
       <use xlink:href="#DejaVuSans-30" x="127.246094"/>
       <use xlink:href="#DejaVuSans-30" x="190.869141"/>
      </g>
     </g>
    </g>
    <g id="ytick_9">
     <g id="line2d_33">
      <path d="M 108 70.067516 
L 777.6 70.067516 
" clip-path="url(#pfdfe239402)" style="fill: none; stroke-dasharray: 5.12,1.28,0.8,1.28; stroke-dashoffset: 0; stroke: #b0b0b0; stroke-width: 0.8"/>
     </g>
     <g id="line2d_34">
      <g>
       <use xlink:href="#mec09779e87" x="108" y="70.067516" style="fill: #a9a9a9; stroke: #a9a9a9; stroke-width: 0.8"/>
      </g>
     </g>
     <g id="text_17">
      <!-- 4000 -->
      <g style="fill: #a9a9a9" transform="translate(75.55 73.866735) scale(0.1 -0.1)">
       <use xlink:href="#DejaVuSans-34"/>
       <use xlink:href="#DejaVuSans-30" x="63.623047"/>
       <use xlink:href="#DejaVuSans-30" x="127.246094"/>
       <use xlink:href="#DejaVuSans-30" x="190.869141"/>
      </g>
     </g>
    </g>
   </g>
   <g id="line2d_35">
    <path d="M 138.436364 307.681104 
L 142.246863 307.383864 
L 143.199488 307.264968 
L 144.152113 307.264968 
L 145.104738 306.90828 
L 147.009987 306.789384 
L 153.678361 305.540977 
L 155.583611 305.422081 
L 156.536236 305.243737 
L 159.39411 305.065393 
L 160.346735 304.589809 
L 161.29936 304.352017 
L 162.251985 303.281953 
L 163.204609 302.687473 
L 164.157234 300.72569 
L 165.109859 300.606794 
L 166.062484 299.952866 
L 167.015109 299.596178 
L 167.967734 299.120594 
L 170.825608 296.921019 
L 172.730858 296.088747 
L 173.683483 295.732059 
L 174.636108 295.078132 
L 176.541357 294.305308 
L 177.493982 293.829724 
L 178.446607 293.532484 
L 179.399232 292.105732 
L 180.351857 291.392357 
L 182.257106 290.441189 
L 187.972855 289.668365 
L 188.92548 289.490021 
L 190.83073 289.371125 
L 191.783355 289.192781 
L 192.73598 288.717197 
L 194.641229 288.657749 
L 195.593854 288.657749 
L 199.404353 288.241614 
L 200.356978 287.944374 
L 205.120102 287.052654 
L 207.025352 286.87431 
L 207.977977 286.636518 
L 210.835851 286.339278 
L 211.788476 285.863694 
L 212.741101 285.744798 
L 213.693726 285.38811 
L 215.598976 285.09087 
L 216.551601 285.031423 
L 217.504225 284.734183 
L 221.314725 284.199151 
L 222.26735 283.901911 
L 224.172599 283.604671 
L 225.125224 283.604671 
L 229.888348 283.010191 
L 231.793598 282.475159 
L 232.746223 282.237367 
L 234.651472 282.059023 
L 235.604097 281.999575 
L 238.461972 281.464544 
L 239.414597 281.167304 
L 240.367222 279.978344 
L 241.319846 279.621656 
L 242.272471 279.146072 
L 243.225096 279.027176 
L 244.177721 278.789384 
L 245.130346 278.670488 
L 247.035595 277.897665 
L 247.98822 277.838217 
L 252.751344 276.649257 
L 253.703969 276.649257 
L 255.609219 276.411465 
L 257.514469 275.876433 
L 260.372343 275.222505 
L 261.324968 275.163057 
L 263.230218 274.390234 
L 264.182843 274.271338 
L 265.135467 273.855202 
L 267.040717 273.676858 
L 267.993342 273.61741 
L 270.851216 273.141826 
L 272.756466 272.844586 
L 277.51959 271.952866 
L 279.42484 271.298938 
L 280.377465 270.763907 
L 281.33009 270.526115 
L 282.282714 270.407219 
L 284.187964 269.812739 
L 286.093214 268.802123 
L 287.045839 268.207643 
L 287.998464 268.088747 
L 288.951088 267.791507 
L 289.903713 267.672611 
L 290.856338 267.43482 
L 291.808963 267.315924 
L 292.761588 266.899788 
L 294.666837 266.602548 
L 296.572087 265.770276 
L 297.524712 265.532484 
L 298.477337 265.413588 
L 299.429962 265.116348 
L 303.240461 264.402972 
L 305.145711 263.630149 
L 306.098335 263.451805 
L 307.05096 263.095117 
L 308.003585 262.976221 
L 308.95621 262.560085 
L 309.908835 262.322293 
L 311.814085 262.203397 
L 313.719334 261.608917 
L 314.671959 261.490021 
L 315.624584 261.490021 
L 316.577209 261.073885 
L 319.435083 260.479406 
L 321.340333 260.419958 
L 322.292958 260.301062 
L 323.245583 260.301062 
L 325.150832 260.003822 
L 328.008707 258.695966 
L 328.961332 258.27983 
L 329.913956 258.042038 
L 330.866581 257.447558 
L 331.819206 257.150318 
L 333.724456 256.318047 
L 334.677081 256.139703 
L 336.58233 255.485775 
L 338.48758 254.475159 
L 339.440205 253.523992 
L 340.39283 252.09724 
L 341.345455 250.967728 
L 342.298079 250.729936 
L 343.250704 250.729936 
L 345.155954 249.422081 
L 346.108579 249.184289 
L 347.061204 248.708705 
L 348.013828 248.530361 
L 348.966453 247.698089 
L 349.919078 247.460297 
L 352.776953 246.21189 
L 353.729577 245.141826 
L 354.682202 243.774522 
L 355.634827 243.23949 
L 356.587452 241.812739 
L 357.540077 240.921019 
L 358.492702 240.504883 
L 359.445327 240.267091 
L 361.350576 239.197028 
L 362.303201 238.780892 
L 366.1137 236.16518 
L 367.066325 234.916773 
L 368.01895 232.895541 
L 368.971575 231.587686 
L 369.9242 230.933758 
L 370.876825 230.57707 
L 374.687324 227.545223 
L 376.592574 226.118471 
L 377.545198 225.345648 
L 378.497823 224.09724 
L 379.450448 223.264968 
L 382.308323 221.422081 
L 384.213572 220.233121 
L 385.166197 219.460297 
L 386.118822 219.222505 
L 388.976697 217.855202 
L 390.881946 216.844586 
L 391.834571 216.487898 
L 393.739821 214.882803 
L 394.692446 213.812739 
L 396.597695 212.623779 
L 397.55032 212.385987 
L 398.502945 211.910403 
L 399.45557 211.256476 
L 401.360819 210.305308 
L 402.313444 210.186412 
L 403.266069 209.591932 
L 405.171319 208.700212 
L 406.123944 207.808493 
L 407.076569 207.214013 
L 408.029193 206.916773 
L 408.981818 206.322293 
L 411.839693 205.073885 
L 412.792318 204.479406 
L 413.744942 203.706582 
L 415.650192 203.052654 
L 416.602817 202.695966 
L 417.555442 202.517622 
L 418.508067 201.923142 
L 419.460691 201.744798 
L 421.365941 201.09087 
L 423.271191 200.436943 
L 425.17644 199.723567 
L 426.129065 199.485775 
L 427.08169 199.129087 
L 428.98694 198.831847 
L 430.89219 197.345648 
L 431.844814 196.98896 
L 436.607939 194.729936 
L 437.560563 194.492144 
L 438.513188 193.957113 
L 439.465813 193.719321 
L 442.323688 192.054777 
L 445.181562 191.460297 
L 446.134187 191.163057 
L 447.086812 190.984713 
L 449.944686 189.498514 
L 450.897311 189.379618 
L 451.849936 189.02293 
L 452.802561 188.904034 
L 453.755186 188.666242 
L 456.61306 186.763907 
L 457.565685 186.585563 
L 458.51831 186.288323 
L 459.470935 186.169427 
L 460.42356 185.872187 
L 461.376184 185.218259 
L 462.328809 184.921019 
L 463.281434 184.504883 
L 467.091933 183.494268 
L 468.044558 183.43482 
L 468.997183 183.13758 
L 470.902433 182.364756 
L 471.855058 182.067516 
L 472.807682 181.889172 
L 475.665557 180.75966 
L 477.570807 180.224628 
L 478.523431 180.16518 
L 480.428681 179.749045 
L 481.381306 179.332909 
L 482.333931 179.154565 
L 484.239181 178.381741 
L 488.04968 176.598301 
L 489.002305 176.003822 
L 489.95493 175.76603 
L 492.812804 174.398726 
L 494.718054 173.98259 
L 496.623303 173.09087 
L 497.575928 172.793631 
L 499.481178 172.496391 
L 500.433803 171.842463 
L 501.386428 171.426327 
L 502.339052 171.247983 
L 504.244302 170.534607 
L 505.196927 170.356263 
L 506.149552 169.880679 
L 509.960051 169.345648 
L 511.865301 168.513376 
L 512.817926 167.8 
L 513.770551 166.254352 
L 514.723175 166.016561 
L 516.628425 165.719321 
L 520.438924 163.935881 
L 521.391549 163.757537 
L 527.107298 161.201274 
L 528.059923 160.606794 
L 529.012548 160.250106 
L 531.870423 159.715074 
L 533.775672 158.823355 
L 534.728297 158.466667 
L 535.680922 158.347771 
L 538.538796 157.277707 
L 540.444046 156.207643 
L 541.396671 155.613163 
L 542.349296 155.197028 
L 543.301921 155.078132 
L 544.254545 154.780892 
L 545.20717 154.721444 
L 549.01767 153.532484 
L 549.970294 153.473036 
L 550.922919 152.819108 
L 551.875544 152.581316 
L 553.780794 151.867941 
L 555.686044 151.332909 
L 556.638668 150.797877 
L 557.591293 150.500637 
L 558.543918 149.906157 
L 559.496543 149.549469 
L 560.449168 149.014437 
L 562.354417 148.36051 
L 563.307042 148.06327 
L 566.164917 146.87431 
L 567.117542 146.220382 
L 568.070166 145.209766 
L 569.022791 144.615287 
L 569.975416 144.436943 
L 571.880666 143.069639 
L 572.833291 142.891295 
L 573.785915 141.583439 
L 574.73854 141.226752 
L 575.691165 140.572824 
L 576.64379 140.453928 
L 577.596415 139.859448 
L 578.54904 139.443312 
L 579.501665 139.264968 
L 580.454289 138.90828 
L 581.406914 138.194904 
L 582.359539 137.897665 
L 585.217414 136.114225 
L 589.027913 134.390234 
L 589.980538 134.271338 
L 590.933163 133.91465 
L 592.838412 132.904034 
L 593.791037 131.477282 
L 594.743662 130.585563 
L 595.696287 130.109979 
L 596.648912 129.931635 
L 598.554161 128.861571 
L 599.506786 128.683227 
L 601.412036 127.850955 
L 604.26991 126.721444 
L 606.17516 125.473036 
L 608.08041 123.570701 
L 609.033035 122.857325 
L 610.938284 121.787261 
L 611.890909 120.895541 
L 614.748784 118.755414 
L 615.701408 118.27983 
L 616.654033 117.328662 
L 617.606658 116.674735 
L 619.511908 116.020807 
L 620.464533 115.188535 
L 622.369782 114.296815 
L 623.322407 114.059023 
L 624.275032 113.405096 
L 625.227657 113.167304 
L 628.085531 111.8 
L 629.038156 111.146072 
L 629.990781 110.670488 
L 631.896031 110.135456 
L 632.848656 109.600425 
L 635.70653 108.768153 
L 637.61178 108.233121 
L 639.517029 107.341401 
L 640.469654 106.568577 
L 642.374904 105.855202 
L 645.232778 104.844586 
L 646.185403 104.190658 
L 649.043278 102.942251 
L 649.995903 102.288323 
L 650.948528 101.812739 
L 652.853777 98.364756 
L 654.759027 96.224628 
L 655.711652 95.570701 
L 659.522151 94.025053 
L 660.474776 93.906157 
L 661.427401 93.430573 
L 662.380026 93.192781 
L 663.33265 92.836093 
L 664.285275 92.598301 
L 667.14315 91.528238 
L 669.048399 90.220382 
L 670.953649 89.507006 
L 676.669398 86.534607 
L 677.622023 85.642887 
L 679.527273 84.69172 
L 680.479898 84.216136 
L 681.432522 83.918896 
L 682.385147 83.264968 
L 683.337772 82.90828 
L 686.195647 81.362633 
L 687.148271 80.827601 
L 688.100896 80.589809 
L 689.053521 79.935881 
L 690.006146 79.579193 
L 690.958771 79.400849 
L 692.86402 78.687473 
L 694.76927 78.152442 
L 695.721895 77.676858 
L 696.67452 77.02293 
L 697.627145 76.844586 
L 700.485019 75.893418 
L 701.437644 75.180042 
L 704.295519 74.109979 
L 705.248143 73.872187 
L 707.153393 72.683227 
L 708.106018 72.326539 
L 709.058643 71.850955 
L 710.963892 70.5431 
L 712.869142 69.94862 
L 713.821767 69.175796 
L 714.774392 68.997452 
L 715.727017 68.224628 
L 717.632266 67.214013 
L 719.537516 66.441189 
L 720.490141 65.549469 
L 721.442766 65.073885 
L 723.348015 64.538854 
L 724.30064 64.003822 
L 725.253265 63.884926 
L 728.11114 62.517622 
L 730.969014 61.68535 
L 731.921639 61.447558 
L 732.874264 61.38811 
L 733.826889 61.209766 
L 734.779513 60.853079 
L 735.732138 60.674735 
L 737.637388 59.961359 
L 738.590013 59.901911 
L 741.447887 59.010191 
L 743.353137 57.940127 
L 745.258387 56.572824 
L 747.163636 55.8 
L 747.163636 55.8 
" clip-path="url(#pfdfe239402)" style="fill: none; stroke: #1f77b4; stroke-width: 1.5; stroke-linecap: square"/>
   </g>
   <g id="line2d_36">
    <path d="M 139.388988 307.8 
L 141.294238 307.8 
L 143.199488 307.562208 
L 148.915237 307.50276 
L 151.773111 307.383864 
L 154.630986 307.324416 
L 156.536236 307.264968 
L 159.39411 307.264968 
L 160.346735 307.027176 
L 163.204609 306.967728 
L 167.967734 306.432696 
L 175.588732 306.016561 
L 176.541357 306.016561 
L 177.493982 305.838217 
L 180.351857 305.778769 
L 182.257106 305.540977 
L 186.067606 305.540977 
L 187.02023 305.422081 
L 191.783355 305.362633 
L 194.641229 305.243737 
L 203.214853 305.184289 
L 205.120102 305.124841 
L 208.930602 305.065393 
L 211.788476 304.946497 
L 215.598976 304.946497 
L 216.551601 304.827601 
L 219.409475 304.768153 
L 223.219974 304.589809 
L 229.888348 304.530361 
L 231.793598 304.470913 
L 235.604097 304.411465 
L 238.461972 304.054777 
L 243.225096 303.995329 
L 247.98822 303.757537 
L 252.751344 303.698089 
L 255.609219 303.579193 
L 257.514469 303.519745 
L 259.419718 303.341401 
L 263.230218 303.163057 
L 266.088092 303.103609 
L 267.993342 303.044161 
L 269.898592 303.044161 
L 270.851216 302.925265 
L 273.709091 302.925265 
L 275.614341 302.746921 
L 278.472215 302.628025 
L 283.235339 302.568577 
L 286.093214 302.271338 
L 287.998464 302.152442 
L 288.951088 301.974098 
L 292.761588 301.91465 
L 303.240461 301.32017 
L 305.145711 301.260722 
L 308.003585 301.141826 
L 308.95621 301.141826 
L 310.86146 300.963482 
L 312.766709 300.904034 
L 313.719334 300.904034 
L 314.671959 300.785138 
L 316.577209 300.72569 
L 321.340333 300.487898 
L 323.245583 300.42845 
L 326.103457 300.309554 
L 328.961332 300.250106 
L 330.866581 300.190658 
L 335.629706 300.190658 
L 339.440205 299.774522 
L 340.39283 299.774522 
L 342.298079 299.596178 
L 344.203329 299.53673 
L 348.966453 299.23949 
L 349.919078 299.001699 
L 351.824328 298.882803 
L 352.776953 298.645011 
L 355.634827 298.407219 
L 357.540077 297.991083 
L 359.445327 297.931635 
L 361.350576 297.931635 
L 362.303201 297.812739 
L 363.255826 297.812739 
L 366.1137 297.396603 
L 367.066325 297.158811 
L 384.213572 296.148195 
L 385.166197 296.148195 
L 388.976697 295.672611 
L 389.929321 295.672611 
L 391.834571 295.375372 
L 393.739821 295.197028 
L 395.64507 295.13758 
L 397.55032 295.13758 
L 398.502945 294.899788 
L 401.360819 294.780892 
L 403.266069 294.780892 
L 405.171319 294.602548 
L 406.123944 294.602548 
L 408.981818 294.186412 
L 409.934443 293.94862 
L 411.839693 293.889172 
L 413.744942 293.829724 
L 414.697567 293.710828 
L 419.460691 293.65138 
L 432.797439 292.878556 
L 434.702689 292.878556 
L 436.607939 292.700212 
L 438.513188 292.700212 
L 441.371063 292.402972 
L 445.181562 292.224628 
L 447.086812 292.16518 
L 448.992061 292.105732 
L 451.849936 292.046285 
L 458.51831 291.689597 
L 463.281434 291.630149 
L 465.186684 291.570701 
L 466.139309 291.570701 
L 467.091933 291.392357 
L 468.997183 291.332909 
L 474.712932 291.273461 
L 476.618182 291.214013 
L 481.381306 291.154565 
L 482.333931 290.976221 
L 488.04968 290.916773 
L 489.95493 290.857325 
L 491.860179 290.797877 
L 493.765429 290.738429 
L 495.670679 290.678981 
L 502.339052 290.322293 
L 508.054802 290.262845 
L 510.912676 290.025053 
L 512.817926 289.846709 
L 514.723175 289.787261 
L 516.628425 289.787261 
L 517.58105 289.668365 
L 520.438924 289.608917 
L 521.391549 289.371125 
L 525.202049 289.192781 
L 533.775672 289.133333 
L 538.538796 288.776645 
L 541.396671 288.479406 
L 546.159795 288.419958 
L 549.01767 288.122718 
L 554.733419 287.825478 
L 556.638668 287.76603 
L 560.449168 287.587686 
L 564.259667 287.528238 
L 567.117542 287.409342 
L 570.928041 287.349894 
L 573.785915 287.052654 
L 575.691165 286.993206 
L 579.501665 286.933758 
L 582.359539 286.695966 
L 583.312164 286.57707 
L 584.264789 286.57707 
L 586.170038 286.398726 
L 590.933163 286.339278 
L 592.838412 286.042038 
L 601.412036 285.98259 
L 603.317286 285.804246 
L 604.26991 285.68535 
L 606.17516 285.625902 
L 608.08041 285.566454 
L 609.033035 285.328662 
L 610.938284 285.269214 
L 611.890909 285.09087 
L 613.796159 285.09087 
L 616.654033 284.793631 
L 634.753905 283.723567 
L 636.659155 283.664119 
L 638.564405 283.604671 
L 649.995903 283.545223 
L 652.853777 283.426327 
L 653.806402 283.426327 
L 654.759027 283.188535 
L 656.664277 283.129087 
L 661.427401 283.069639 
L 664.285275 282.950743 
L 669.048399 282.891295 
L 671.906274 282.772399 
L 673.811524 282.772399 
L 675.716773 282.534607 
L 677.622023 282.475159 
L 684.290397 282.118471 
L 686.195647 282.118471 
L 688.100896 281.940127 
L 694.76927 281.880679 
L 696.67452 281.702335 
L 699.532394 281.583439 
L 704.295519 281.523992 
L 706.200768 281.464544 
L 710.011268 281.405096 
L 711.916517 281.345648 
L 713.821767 281.2862 
L 715.727017 281.226752 
L 721.442766 281.167304 
L 726.20589 280.929512 
L 731.921639 280.870064 
L 736.684763 280.632272 
L 741.447887 280.632272 
L 742.400512 280.453928 
L 743.353137 280.453928 
L 745.258387 280.275584 
L 747.163636 280.275584 
L 747.163636 280.275584 
" clip-path="url(#pfdfe239402)" style="fill: none; stroke: #ff7f0e; stroke-width: 1.5; stroke-linecap: square"/>
   </g>
   <g id="patch_3">
    <path d="M 108 320.4 
L 108 43.2 
" style="fill: none; stroke: #a9a9a9; stroke-width: 0.8; stroke-linejoin: miter; stroke-linecap: square"/>
   </g>
   <g id="patch_4">
    <path d="M 777.6 320.4 
L 777.6 43.2 
" style="fill: none"/>
   </g>
   <g id="patch_5">
    <path d="M 108 320.4 
L 777.6 320.4 
" style="fill: none; stroke: #a9a9a9; stroke-width: 0.8; stroke-linejoin: miter; stroke-linecap: square"/>
   </g>
   <g id="patch_6">
    <path d="M 108 43.2 
L 777.6 43.2 
" style="fill: none"/>
   </g>
   <g id="text_18">
    <!-- get_subscribe history -->
    <g style="fill: #a9a9a9" transform="translate(378.6075 37.2) scale(0.12 -0.12)">
     <defs>
      <path id="DejaVuSans-67" d="M 2906 1791 
Q 2906 2416 2648 2759 
Q 2391 3103 1925 3103 
Q 1463 3103 1205 2759 
Q 947 2416 947 1791 
Q 947 1169 1205 825 
Q 1463 481 1925 481 
Q 2391 481 2648 825 
Q 2906 1169 2906 1791 
z
M 3481 434 
Q 3481 -459 3084 -895 
Q 2688 -1331 1869 -1331 
Q 1566 -1331 1297 -1286 
Q 1028 -1241 775 -1147 
L 775 -588 
Q 1028 -725 1275 -790 
Q 1522 -856 1778 -856 
Q 2344 -856 2625 -561 
Q 2906 -266 2906 331 
L 2906 616 
Q 2728 306 2450 153 
Q 2172 0 1784 0 
Q 1141 0 747 490 
Q 353 981 353 1791 
Q 353 2603 747 3093 
Q 1141 3584 1784 3584 
Q 2172 3584 2450 3431 
Q 2728 3278 2906 2969 
L 2906 3500 
L 3481 3500 
L 3481 434 
z
" transform="scale(0.015625)"/>
      <path id="DejaVuSans-65" d="M 3597 1894 
L 3597 1613 
L 953 1613 
Q 991 1019 1311 708 
Q 1631 397 2203 397 
Q 2534 397 2845 478 
Q 3156 559 3463 722 
L 3463 178 
Q 3153 47 2828 -22 
Q 2503 -91 2169 -91 
Q 1331 -91 842 396 
Q 353 884 353 1716 
Q 353 2575 817 3079 
Q 1281 3584 2069 3584 
Q 2775 3584 3186 3129 
Q 3597 2675 3597 1894 
z
M 3022 2063 
Q 3016 2534 2758 2815 
Q 2500 3097 2075 3097 
Q 1594 3097 1305 2825 
Q 1016 2553 972 2059 
L 3022 2063 
z
" transform="scale(0.015625)"/>
      <path id="DejaVuSans-74" d="M 1172 4494 
L 1172 3500 
L 2356 3500 
L 2356 3053 
L 1172 3053 
L 1172 1153 
Q 1172 725 1289 603 
Q 1406 481 1766 481 
L 2356 481 
L 2356 0 
L 1766 0 
Q 1100 0 847 248 
Q 594 497 594 1153 
L 594 3053 
L 172 3053 
L 172 3500 
L 594 3500 
L 594 4494 
L 1172 4494 
z
" transform="scale(0.015625)"/>
      <path id="DejaVuSans-5f" d="M 3263 -1063 
L 3263 -1509 
L -63 -1509 
L -63 -1063 
L 3263 -1063 
z
" transform="scale(0.015625)"/>
      <path id="DejaVuSans-73" d="M 2834 3397 
L 2834 2853 
Q 2591 2978 2328 3040 
Q 2066 3103 1784 3103 
Q 1356 3103 1142 2972 
Q 928 2841 928 2578 
Q 928 2378 1081 2264 
Q 1234 2150 1697 2047 
L 1894 2003 
Q 2506 1872 2764 1633 
Q 3022 1394 3022 966 
Q 3022 478 2636 193 
Q 2250 -91 1575 -91 
Q 1294 -91 989 -36 
Q 684 19 347 128 
L 347 722 
Q 666 556 975 473 
Q 1284 391 1588 391 
Q 1994 391 2212 530 
Q 2431 669 2431 922 
Q 2431 1156 2273 1281 
Q 2116 1406 1581 1522 
L 1381 1569 
Q 847 1681 609 1914 
Q 372 2147 372 2553 
Q 372 3047 722 3315 
Q 1072 3584 1716 3584 
Q 2034 3584 2315 3537 
Q 2597 3491 2834 3397 
z
" transform="scale(0.015625)"/>
      <path id="DejaVuSans-75" d="M 544 1381 
L 544 3500 
L 1119 3500 
L 1119 1403 
Q 1119 906 1312 657 
Q 1506 409 1894 409 
Q 2359 409 2629 706 
Q 2900 1003 2900 1516 
L 2900 3500 
L 3475 3500 
L 3475 0 
L 2900 0 
L 2900 538 
Q 2691 219 2414 64 
Q 2138 -91 1772 -91 
Q 1169 -91 856 284 
Q 544 659 544 1381 
z
M 1991 3584 
L 1991 3584 
z
" transform="scale(0.015625)"/>
      <path id="DejaVuSans-62" d="M 3116 1747 
Q 3116 2381 2855 2742 
Q 2594 3103 2138 3103 
Q 1681 3103 1420 2742 
Q 1159 2381 1159 1747 
Q 1159 1113 1420 752 
Q 1681 391 2138 391 
Q 2594 391 2855 752 
Q 3116 1113 3116 1747 
z
M 1159 2969 
Q 1341 3281 1617 3432 
Q 1894 3584 2278 3584 
Q 2916 3584 3314 3078 
Q 3713 2572 3713 1747 
Q 3713 922 3314 415 
Q 2916 -91 2278 -91 
Q 1894 -91 1617 61 
Q 1341 213 1159 525 
L 1159 0 
L 581 0 
L 581 4863 
L 1159 4863 
L 1159 2969 
z
" transform="scale(0.015625)"/>
      <path id="DejaVuSans-63" d="M 3122 3366 
L 3122 2828 
Q 2878 2963 2633 3030 
Q 2388 3097 2138 3097 
Q 1578 3097 1268 2742 
Q 959 2388 959 1747 
Q 959 1106 1268 751 
Q 1578 397 2138 397 
Q 2388 397 2633 464 
Q 2878 531 3122 666 
L 3122 134 
Q 2881 22 2623 -34 
Q 2366 -91 2075 -91 
Q 1284 -91 818 406 
Q 353 903 353 1747 
Q 353 2603 823 3093 
Q 1294 3584 2113 3584 
Q 2378 3584 2631 3529 
Q 2884 3475 3122 3366 
z
" transform="scale(0.015625)"/>
      <path id="DejaVuSans-72" d="M 2631 2963 
Q 2534 3019 2420 3045 
Q 2306 3072 2169 3072 
Q 1681 3072 1420 2755 
Q 1159 2438 1159 1844 
L 1159 0 
L 581 0 
L 581 3500 
L 1159 3500 
L 1159 2956 
Q 1341 3275 1631 3429 
Q 1922 3584 2338 3584 
Q 2397 3584 2469 3576 
Q 2541 3569 2628 3553 
L 2631 2963 
z
" transform="scale(0.015625)"/>
      <path id="DejaVuSans-69" d="M 603 3500 
L 1178 3500 
L 1178 0 
L 603 0 
L 603 3500 
z
M 603 4863 
L 1178 4863 
L 1178 4134 
L 603 4134 
L 603 4863 
z
" transform="scale(0.015625)"/>
      <path id="DejaVuSans-20" transform="scale(0.015625)"/>
      <path id="DejaVuSans-68" d="M 3513 2113 
L 3513 0 
L 2938 0 
L 2938 2094 
Q 2938 2591 2744 2837 
Q 2550 3084 2163 3084 
Q 1697 3084 1428 2787 
Q 1159 2491 1159 1978 
L 1159 0 
L 581 0 
L 581 4863 
L 1159 4863 
L 1159 2956 
Q 1366 3272 1645 3428 
Q 1925 3584 2291 3584 
Q 2894 3584 3203 3211 
Q 3513 2838 3513 2113 
z
" transform="scale(0.015625)"/>
      <path id="DejaVuSans-6f" d="M 1959 3097 
Q 1497 3097 1228 2736 
Q 959 2375 959 1747 
Q 959 1119 1226 758 
Q 1494 397 1959 397 
Q 2419 397 2687 759 
Q 2956 1122 2956 1747 
Q 2956 2369 2687 2733 
Q 2419 3097 1959 3097 
z
M 1959 3584 
Q 2709 3584 3137 3096 
Q 3566 2609 3566 1747 
Q 3566 888 3137 398 
Q 2709 -91 1959 -91 
Q 1206 -91 779 398 
Q 353 888 353 1747 
Q 353 2609 779 3096 
Q 1206 3584 1959 3584 
z
" transform="scale(0.015625)"/>
      <path id="DejaVuSans-79" d="M 2059 -325 
Q 1816 -950 1584 -1140 
Q 1353 -1331 966 -1331 
L 506 -1331 
L 506 -850 
L 844 -850 
Q 1081 -850 1212 -737 
Q 1344 -625 1503 -206 
L 1606 56 
L 191 3500 
L 800 3500 
L 1894 763 
L 2988 3500 
L 3597 3500 
L 2059 -325 
z
" transform="scale(0.015625)"/>
     </defs>
     <use xlink:href="#DejaVuSans-67"/>
     <use xlink:href="#DejaVuSans-65" x="63.476562"/>
     <use xlink:href="#DejaVuSans-74" x="125"/>
     <use xlink:href="#DejaVuSans-5f" x="164.208984"/>
     <use xlink:href="#DejaVuSans-73" x="214.208984"/>
     <use xlink:href="#DejaVuSans-75" x="266.308594"/>
     <use xlink:href="#DejaVuSans-62" x="329.6875"/>
     <use xlink:href="#DejaVuSans-73" x="393.164062"/>
     <use xlink:href="#DejaVuSans-63" x="445.263672"/>
     <use xlink:href="#DejaVuSans-72" x="500.244141"/>
     <use xlink:href="#DejaVuSans-69" x="541.357422"/>
     <use xlink:href="#DejaVuSans-62" x="569.140625"/>
     <use xlink:href="#DejaVuSans-65" x="632.617188"/>
     <use xlink:href="#DejaVuSans-20" x="694.140625"/>
     <use xlink:href="#DejaVuSans-68" x="725.927734"/>
     <use xlink:href="#DejaVuSans-69" x="789.306641"/>
     <use xlink:href="#DejaVuSans-73" x="817.089844"/>
     <use xlink:href="#DejaVuSans-74" x="869.189453"/>
     <use xlink:href="#DejaVuSans-6f" x="908.398438"/>
     <use xlink:href="#DejaVuSans-72" x="969.580078"/>
     <use xlink:href="#DejaVuSans-79" x="1010.693359"/>
    </g>
   </g>
   <g id="legend_1">
    <g id="line2d_37">
     <path d="M 815.08 328.498438 
L 825.08 328.498438 
L 835.08 328.498438 
" style="fill: none; stroke: #1f77b4; stroke-width: 1.5; stroke-linecap: square"/>
    </g>
    <g id="text_19">
     <!-- star -->
     <g style="fill: #a9a9a9" transform="translate(843.08 331.998438) scale(0.1 -0.1)">
      <defs>
       <path id="DejaVuSans-61" d="M 2194 1759 
Q 1497 1759 1228 1600 
Q 959 1441 959 1056 
Q 959 750 1161 570 
Q 1363 391 1709 391 
Q 2188 391 2477 730 
Q 2766 1069 2766 1631 
L 2766 1759 
L 2194 1759 
z
M 3341 1997 
L 3341 0 
L 2766 0 
L 2766 531 
Q 2569 213 2275 61 
Q 1981 -91 1556 -91 
Q 1019 -91 701 211 
Q 384 513 384 1019 
Q 384 1609 779 1909 
Q 1175 2209 1959 2209 
L 2766 2209 
L 2766 2266 
Q 2766 2663 2505 2880 
Q 2244 3097 1772 3097 
Q 1472 3097 1187 3025 
Q 903 2953 641 2809 
L 641 3341 
Q 956 3463 1253 3523 
Q 1550 3584 1831 3584 
Q 2591 3584 2966 3190 
Q 3341 2797 3341 1997 
z
" transform="scale(0.015625)"/>
      </defs>
      <use xlink:href="#DejaVuSans-73"/>
      <use xlink:href="#DejaVuSans-74" x="52.099609"/>
      <use xlink:href="#DejaVuSans-61" x="91.308594"/>
      <use xlink:href="#DejaVuSans-72" x="152.587891"/>
     </g>
    </g>
    <g id="line2d_38">
     <path d="M 815.08 343.176562 
L 825.08 343.176562 
L 835.08 343.176562 
" style="fill: none; stroke: #ff7f0e; stroke-width: 1.5; stroke-linecap: square"/>
    </g>
    <g id="text_20">
     <!-- fork -->
     <g style="fill: #a9a9a9" transform="translate(843.08 346.676562) scale(0.1 -0.1)">
      <defs>
       <path id="DejaVuSans-66" d="M 2375 4863 
L 2375 4384 
L 1825 4384 
Q 1516 4384 1395 4259 
Q 1275 4134 1275 3809 
L 1275 3500 
L 2222 3500 
L 2222 3053 
L 1275 3053 
L 1275 0 
L 697 0 
L 697 3053 
L 147 3053 
L 147 3500 
L 697 3500 
L 697 3744 
Q 697 4328 969 4595 
Q 1241 4863 1831 4863 
L 2375 4863 
z
" transform="scale(0.015625)"/>
       <path id="DejaVuSans-6b" d="M 581 4863 
L 1159 4863 
L 1159 1991 
L 2875 3500 
L 3609 3500 
L 1753 1863 
L 3688 0 
L 2938 0 
L 1159 1709 
L 1159 0 
L 581 0 
L 581 4863 
z
" transform="scale(0.015625)"/>
      </defs>
      <use xlink:href="#DejaVuSans-66"/>
      <use xlink:href="#DejaVuSans-6f" x="35.205078"/>
      <use xlink:href="#DejaVuSans-72" x="96.386719"/>
      <use xlink:href="#DejaVuSans-6b" x="137.5"/>
     </g>
    </g>
   </g>
  </g>
 </g>
 <defs>
  <clipPath id="pfdfe239402">
   <rect x="108" y="43.2" width="669.6" height="277.2"/>
  </clipPath>
 </defs>
</svg>
